<svg version="1.1" id="Layer_1" xmlns="http://www.w3.org/2000/svg" xmlns:xlink="http://www.w3.org/1999/xlink" x="0px" y="0px"
	 width="100%" viewBox="0 0 591 1004" enable-background="new 0 0 591 1004" xml:space="preserve">
<path fill="#000000" opacity="1.000000" stroke="none" 
	d="
M592.000000,378.000000 
	C592.000000,587.333313 592.000000,796.166687 592.000000,1005.000000 
	C395.000000,1005.000000 198.000000,1005.000000 1.000000,1005.000000 
	C1.000000,670.333313 1.000000,335.666656 1.000000,1.000000 
	C198.000000,1.000000 395.000000,1.000000 592.000000,1.000000 
	C592.000000,126.500000 592.000000,252.000000 592.000000,378.000000 
M523.771118,493.331390 
	C523.654907,494.585114 522.978271,496.230286 523.528809,497.018402 
	C525.111694,499.284729 527.190735,501.204620 529.318787,503.526886 
	C530.658264,502.378174 531.574890,501.592041 532.752075,500.582489 
	C529.622803,497.698273 527.106934,495.379364 524.684143,492.238922 
	C525.548828,489.794586 526.413513,487.350250 527.278198,484.905914 
	C526.791260,484.564606 526.304321,484.223328 525.817383,483.882050 
	C524.671753,484.375244 522.495667,485.024078 522.542969,485.337128 
	C522.936890,487.945007 523.740540,490.490967 523.771118,493.331390 
M141.213608,239.081848 
	C141.213608,209.647125 141.213608,180.212418 141.213608,150.704346 
	C113.937363,150.704346 87.193443,150.704346 60.286289,150.704346 
	C60.286289,180.640152 60.286289,210.260025 60.185040,240.501450 
	C60.218487,240.708679 60.251930,240.915924 60.136005,242.033798 
	C60.136005,271.408295 60.136005,300.782806 60.136005,330.158875 
	C87.512123,330.158875 114.212257,330.158875 141.247177,330.158875 
	C141.247177,325.334381 141.259445,320.857880 141.245148,316.381409 
	C141.164841,291.255432 141.078125,266.129456 141.127609,240.499969 
	C141.082932,240.332123 141.038269,240.164276 141.213608,239.081848 
M310.116272,240.500610 
	C310.148621,240.701874 310.180969,240.903137 310.077850,242.019592 
	C310.077850,271.404694 310.077850,300.789795 310.077850,330.187347 
	C337.456879,330.187347 364.172089,330.187347 390.983215,330.187347 
	C390.983215,300.240051 390.983215,270.624939 391.115479,240.499817 
	C391.071320,240.329865 391.027130,240.159897 391.174225,239.070755 
	C391.174225,209.645538 391.174225,180.220322 391.174225,150.691132 
	C363.850769,150.691132 337.111969,150.691132 310.213989,150.691132 
	C310.213989,180.632019 310.213989,210.264481 310.116272,240.500610 
M532.346497,149.135651 
	C532.346497,119.558052 532.346497,89.980453 532.346497,60.223953 
	C505.193085,60.223953 478.466461,60.223953 451.476715,60.223953 
	C451.390167,61.214603 451.260620,62.007587 451.260315,62.800625 
	C451.249756,90.770073 451.243744,118.739525 451.279297,146.708939 
	C451.280701,147.811279 451.694946,148.913101 451.489685,150.859955 
	C451.409271,151.517990 451.258881,152.175995 451.258575,152.834061 
	C451.245728,180.814545 451.244049,208.795029 451.253998,236.775513 
	C451.254364,237.736145 451.387421,238.696747 451.474915,239.877350 
	C478.479370,239.877350 505.222351,239.877350 532.422302,239.877350 
	C532.422302,237.945206 532.422302,236.140137 532.422302,234.335068 
	C532.422302,213.183151 532.449219,192.031174 532.406494,170.879349 
	C532.393066,164.235718 532.192383,157.592438 532.235474,150.496536 
	C532.235474,150.496536 532.074280,150.045166 532.346497,149.135651 
M272.500183,150.379135 
	C256.901581,150.379135 241.302994,150.379135 225.599518,150.379135 
	C225.599518,180.642471 225.599518,210.211624 225.599518,239.831177 
	C252.636871,239.831177 279.375580,239.831177 306.187225,239.831177 
	C306.187225,209.969437 306.187225,180.397552 306.187225,150.379227 
	C295.086060,150.379227 284.293152,150.379227 272.500183,150.379135 
M141.986374,123.500000 
	C141.986374,132.262451 141.986374,141.024902 141.986374,149.773010 
	C169.314163,149.773010 196.014694,149.773010 222.718170,149.773010 
	C222.718170,119.731544 222.718170,90.027344 222.718170,60.321606 
	C195.696564,60.321606 168.991425,60.321606 141.986374,60.321606 
	C141.986374,81.260590 141.986374,101.880295 141.986374,123.500000 
M65.612686,798.830261 
	C63.865189,798.830261 62.117691,798.830261 60.510735,798.830261 
	C60.510735,829.247498 60.510735,858.931091 60.510735,888.448975 
	C87.605476,888.448975 114.301460,888.448975 141.043152,888.448975 
	C141.043152,858.487000 141.043152,828.910767 141.043152,798.830261 
	C116.087975,798.830261 91.337181,798.830261 65.612686,798.830261 
M451.247131,678.334167 
	C451.247131,680.111084 451.247131,681.887939 451.247131,683.749756 
	C478.573944,683.749756 505.324951,683.749756 532.123779,683.749756 
	C532.123779,653.776001 532.123779,624.054321 532.123779,594.243469 
	C505.117950,594.243469 478.387024,594.243469 451.247162,594.243469 
	C451.247162,622.136841 451.247162,649.754333 451.247131,678.334167 
M185.924561,390.806244 
	C184.409668,383.949677 180.589432,378.902618 173.796371,376.816132 
	C161.143524,372.929810 148.187500,375.338440 135.444427,374.565979 
	C135.444427,404.524078 135.444427,433.613403 135.444427,463.007294 
	C137.367157,463.007294 139.008667,463.013824 140.650116,463.006226 
	C149.480392,462.965271 158.333679,463.307190 167.135315,462.783051 
	C179.011581,462.075836 186.559921,455.732391 188.488083,444.673126 
	C190.722672,431.856567 188.759628,419.333130 174.976105,415.536163 
	C180.988373,413.193726 185.237488,409.447632 185.939926,403.053467 
	C186.353577,399.287964 186.016068,395.439941 185.924561,390.806244 
M340.084991,462.994141 
	C346.316437,462.994141 352.547882,462.994141 359.110016,462.994141 
	C354.978821,448.366943 351.023804,434.363678 347.079681,420.398834 
	C358.397430,414.053040 358.343018,403.665680 357.457275,393.146881 
	C356.676270,383.871857 351.275299,377.544098 342.321686,376.401428 
	C329.741760,374.796021 316.963287,374.746094 304.364014,374.036224 
	C304.364014,404.481445 304.364014,433.694641 304.364014,462.678894 
	C310.967468,462.678894 317.214478,462.678894 323.952637,462.678894 
	C323.952637,449.472137 323.952637,436.585449 323.952637,423.913300 
	C327.982758,422.688660 329.362396,424.087799 330.202881,427.652496 
	C332.979736,439.429321 336.179810,451.106415 340.084991,462.994141 
M448.384430,415.500427 
	C448.515961,408.347382 448.572906,401.191864 448.808380,394.042236 
	C448.939758,390.051941 450.771179,387.295258 455.161621,387.298828 
	C459.731995,387.302551 461.067291,390.333893 461.127777,394.263184 
	C461.190704,398.351959 461.141785,402.442474 461.141785,406.448181 
	C468.158508,406.448181 474.238190,406.448181 481.071899,406.448181 
	C480.572601,400.653259 480.587616,395.137024 479.529266,389.835022 
	C477.803314,381.188538 472.337250,375.635010 463.493286,374.227570 
	C459.266937,373.554962 454.844757,373.391296 450.584595,373.786835 
	C437.333130,375.017242 429.909912,381.795349 429.242767,395.060638 
	C428.449768,410.828217 428.536163,426.687592 429.210480,442.465790 
	C429.710602,454.168213 436.080200,461.598419 446.498413,463.316132 
	C452.429199,464.293945 458.755432,463.870575 464.771088,463.075531 
	C471.793579,462.147491 476.693420,457.454224 478.436523,450.746429 
	C480.111816,444.299500 480.464783,437.508911 481.429688,430.649780 
	C473.935364,430.649780 467.744873,430.649780 461.032745,430.649780 
	C461.032745,435.536072 461.186188,440.024353 460.986755,444.496918 
	C460.810638,448.446655 458.708374,450.541199 454.500031,450.264313 
	C450.460632,449.998566 448.963348,447.420319 448.857849,443.950623 
	C448.579773,434.804230 448.526947,425.650970 448.384430,415.500427 
M368.109924,447.551361 
	C367.199677,452.575897 366.289429,457.600433 365.362122,462.719147 
	C371.680389,462.719147 377.756744,462.719147 383.758362,462.719147 
	C384.872284,456.432007 385.934235,450.438171 386.970032,444.592163 
	C391.556549,444.592163 395.499908,444.592163 399.682007,444.592163 
	C400.713409,450.763367 401.718109,456.774689 402.699402,462.646057 
	C408.920105,462.646057 414.766357,462.646057 420.746307,462.646057 
	C415.224396,433.106293 409.772552,403.941193 404.322845,374.787659 
	C396.605774,374.787659 389.489044,374.787659 381.972626,374.787659 
	C377.390503,398.787964 372.816254,422.746826 368.109924,447.551361 
M115.140884,402.204102 
	C113.458183,393.076111 111.775482,383.948151 110.114006,374.935303 
	C102.373787,374.935303 95.118515,374.935303 87.640938,374.935303 
	C82.089378,404.307129 76.579109,433.460449 71.061783,462.651154 
	C77.528847,462.651154 83.603661,462.651154 89.639069,462.651154 
	C90.152458,459.342529 90.622795,456.385681 91.068527,453.425140 
	C92.481964,444.037170 92.476524,444.132996 101.977669,444.317596 
	C104.626617,444.369110 105.819260,445.025574 106.114189,447.857697 
	C106.627220,452.784241 107.600334,457.662872 108.403114,462.703186 
	C114.453163,462.703186 120.316742,462.703186 126.514458,462.703186 
	C122.736473,442.581329 119.024689,422.812042 115.140884,402.204102 
M214.755417,439.374878 
	C214.507034,437.621277 214.258652,435.867676 213.960770,433.764496 
	C208.315796,434.643829 202.996704,435.472412 197.762344,436.287781 
	C198.172241,458.446014 212.417221,469.488434 231.465515,463.000183 
	C240.043289,460.078400 245.569458,452.533447 246.108185,443.508057 
	C246.746506,432.813721 242.179169,424.526062 234.624573,417.516327 
	C229.986298,413.212616 225.236450,409.026093 220.681564,404.636627 
	C217.181442,401.263672 215.831970,396.886688 217.171936,392.298462 
	C217.685150,390.541199 220.120651,388.302826 221.773621,388.223175 
	C223.329971,388.148224 225.731949,390.321167 226.462112,392.053131 
	C227.509918,394.538605 227.378189,397.521332 227.793823,400.618256 
	C233.446686,399.919281 238.801895,399.257111 244.087601,398.603546 
	C244.345657,379.838593 235.133789,371.496887 217.289688,373.838379 
	C216.794098,373.903412 216.293701,373.937164 215.801071,374.018921 
	C205.309540,375.759857 198.750961,383.098450 197.807678,393.678009 
	C196.939789,403.411835 200.398041,411.281158 207.465332,417.731262 
	C211.279251,421.212128 215.446320,424.338348 219.009003,428.051575 
	C221.716217,430.873108 224.380630,434.087311 225.889603,437.627411 
	C228.374878,443.457977 226.792297,448.424377 223.172577,449.190399 
	C218.803696,450.114960 216.081207,447.180817 214.755417,439.374878 
M256.509277,389.157043 
	C258.638580,389.157043 260.767853,389.157043 263.429199,389.157043 
	C263.429199,413.979584 263.429199,438.368896 263.429199,462.793518 
	C270.240295,462.793518 276.511475,462.793518 283.287659,462.793518 
	C283.287659,438.211578 283.287659,413.838776 283.287659,389.065094 
	C287.879791,389.065094 291.972809,389.065094 296.091858,389.065094 
	C296.091858,384.083344 296.091858,379.514557 296.091858,374.883545 
	C280.668243,374.883545 265.561249,374.883545 250.364594,374.883545 
	C250.364594,379.681152 250.364594,384.255646 250.364594,389.157043 
	C252.269882,389.157043 253.907867,389.157043 256.509277,389.157043 
M485.711029,385.482300 
	C485.309845,388.123322 486.050690,389.469574 489.110718,389.213440 
	C492.340576,388.943024 495.610596,389.152771 499.149353,389.152771 
	C499.149353,414.130554 499.149353,438.398315 499.149353,462.658264 
	C505.835114,462.658264 512.212341,462.658264 518.952026,462.658264 
	C518.952026,438.063232 518.952026,413.812225 518.952026,389.131287 
	C523.392700,389.131287 527.479675,389.131287 531.698486,389.131287 
	C531.698486,384.133881 531.698486,379.574127 531.698486,374.876892 
	C516.337952,374.876892 501.227844,374.876892 485.710938,374.876892 
	C485.710938,378.218170 485.710938,381.360565 485.711029,385.482300 
M253.171173,500.919464 
	C253.171173,497.615417 253.171173,494.311340 253.171173,491.007294 
	C253.818771,490.795868 254.466354,490.584473 255.113953,490.373047 
	C257.849274,493.887909 260.584595,497.402740 263.397034,501.016724 
	C265.542938,499.244080 266.486328,498.464752 268.161346,497.081085 
	C262.266785,494.764740 261.561615,486.321838 253.851593,488.735199 
	C252.695602,484.131714 252.695602,484.131714 249.259003,484.943726 
	C249.259003,490.896576 249.259003,496.849396 249.259003,503.551178 
	C250.852295,502.833710 252.000061,502.316864 253.171173,500.919464 
M526.385498,526.466797 
	C527.577637,529.253662 523.587219,534.507202 530.702759,535.151917 
	C530.702759,529.385925 530.865173,524.086182 530.569336,518.812195 
	C530.508240,517.722351 528.741760,516.728149 527.761230,515.689880 
	C527.302673,515.999329 526.844055,516.308777 526.385498,516.618286 
	C526.385498,519.583008 526.385498,522.547791 526.385498,526.466797 
M473.547485,533.937439 
	C473.547485,528.160217 473.547485,522.382996 473.547485,516.636414 
	C470.668701,515.564026 469.073364,515.818909 469.147247,519.104980 
	C469.244141,523.413452 469.305267,527.731262 469.127502,532.034607 
	C468.987335,535.427368 470.699799,535.516418 473.547485,533.937439 
M323.171204,518.961121 
	C323.171204,524.232788 323.171204,529.504395 323.171204,534.776062 
	C323.551788,535.089172 323.932404,535.402222 324.312988,535.715332 
	C325.410980,534.807556 327.405914,533.949036 327.458893,532.983887 
	C327.763214,527.442383 327.606995,521.875488 327.606995,516.317261 
	C327.152832,516.073425 326.698669,515.829590 326.244507,515.585754 
	C325.224304,516.412354 324.204102,517.238953 323.171204,518.961121 
M268.382385,496.364410 
	C268.382385,498.489258 268.382385,500.614105 268.382385,503.062927 
	C270.083954,502.921143 271.293945,502.820343 272.705750,502.702728 
	C272.705750,497.339691 272.612671,492.366211 272.740295,487.398376 
	C272.818146,484.369293 271.670868,483.449127 268.385010,484.687073 
	C268.385010,488.160065 268.385010,491.786804 268.382385,496.364410 
M285.837585,498.270691 
	C285.837524,494.622070 285.730865,490.969391 285.869873,487.326080 
	C285.988647,484.213226 284.703827,483.497528 281.910461,484.585938 
	C281.910461,490.669769 281.910461,496.723602 281.910461,502.684174 
	C285.716461,503.970581 286.094971,501.913971 285.837585,498.270691 
M266.615509,519.905273 
	C265.826233,518.630188 265.036926,517.355164 264.247650,516.080078 
	C263.555145,517.288757 262.322845,518.472168 262.265076,519.710510 
	C262.034760,524.647705 262.170135,529.601868 262.170135,534.816528 
	C263.754578,534.816528 264.982819,534.816528 266.615631,534.816528 
	C266.615631,530.055298 266.615631,525.437988 266.615509,519.905273 
M346.837555,498.270691 
	C346.837402,494.622070 346.730499,490.969360 346.869690,487.326080 
	C346.988586,484.212860 345.703674,483.497742 342.910461,484.585907 
	C342.910461,490.669769 342.910461,496.723602 342.910461,502.684174 
	C346.716461,503.970581 347.094971,501.913971 346.837555,498.270691 
M382.288269,484.129974 
	C378.800476,484.130280 375.293427,483.924408 371.835754,484.247314 
	C370.690735,484.354279 369.672852,485.822632 368.596863,486.668549 
	C368.887848,487.019867 369.178864,487.371216 369.469849,487.722534 
	C375.698517,487.722534 381.927216,487.722534 388.263794,487.722534 
	C389.052399,482.543732 385.282745,484.599213 382.288269,484.129974 
M471.304016,498.657837 
	C473.903748,500.524750 475.588715,500.376251 475.610474,496.674866 
	C475.628998,493.528107 475.557251,490.379791 475.629211,487.234558 
	C475.710754,483.671448 474.022522,483.538025 471.184479,484.764221 
	C471.184479,489.226929 471.184479,493.518494 471.304016,498.657837 
M408.534668,525.340576 
	C408.534668,522.387329 408.534668,519.434021 408.534668,516.480774 
	C408.085388,516.182068 407.636108,515.883362 407.186829,515.584656 
	C406.203827,516.537048 404.473480,517.417236 404.373108,518.454956 
	C404.023193,522.072327 404.124237,525.750610 404.327454,529.390442 
	C404.370758,530.166504 405.565155,530.878235 406.229248,531.619629 
	C406.995850,530.821472 408.019531,530.140076 408.451263,529.189758 
	C408.826630,528.363708 408.532745,527.233582 408.534668,525.340576 
M485.766968,516.119995 
	C480.643616,516.158203 480.643616,516.158203 481.048706,519.727905 
	C487.314667,519.727905 493.580627,519.727905 499.846558,519.727905 
	C500.083374,519.269897 500.320190,518.811890 500.557007,518.353882 
	C499.435638,517.609680 498.359283,516.320618 497.184509,516.223633 
	C493.709045,515.936646 490.194702,516.120422 485.766968,516.119995 
M311.479736,516.163086 
	C311.105377,521.044312 310.677643,525.923706 310.503967,530.812012 
	C310.494629,531.074158 312.621796,531.412170 314.292999,531.858826 
	C314.292999,526.830078 314.385284,522.544495 314.204681,518.270386 
	C314.173553,517.533752 312.983093,516.846191 311.479736,516.163086 
M494.920288,491.517242 
	C494.920288,489.227661 494.920288,486.938049 494.920288,484.648468 
	C494.481110,484.341736 494.041931,484.035034 493.602753,483.728302 
	C492.663239,484.743744 490.998352,485.702087 490.913147,486.784790 
	C490.591766,490.867615 490.784149,494.990906 490.784149,499.099030 
	C491.220062,499.404999 491.656006,499.710999 492.091919,500.016968 
	C493.034454,498.976959 494.372559,498.079437 494.812347,496.858368 
	C495.286621,495.541718 494.920044,493.922211 494.920288,491.517242 
M427.920288,527.160522 
	C427.920074,524.513489 427.815643,521.861267 427.946411,519.220764 
	C428.105011,516.017273 426.632050,515.590942 424.091125,516.550476 
	C424.091125,521.557434 424.091125,526.434631 424.091125,531.230042 
	C427.553528,532.353821 428.178741,530.675232 427.920288,527.160522 
M192.149826,486.839264 
	C191.245758,485.818268 190.341690,484.797241 189.437637,483.776245 
	C188.983139,484.084656 188.528656,484.393066 188.074158,484.701508 
	C188.074158,489.954407 187.914154,495.216248 188.206543,500.452820 
	C188.266418,501.525269 190.021301,502.503052 190.994873,503.524475 
	C191.380173,503.201843 191.765488,502.879211 192.150803,502.556580 
	C192.150803,497.631165 192.150803,492.705750 192.149826,486.839264 
M303.490723,503.007629 
	C303.991943,502.531281 304.920593,502.062500 304.929199,501.577423 
	C305.030579,495.845612 304.994385,490.111359 304.994385,484.377716 
	C304.452393,484.141754 303.910370,483.905762 303.368378,483.669800 
	C302.584015,484.849487 301.198578,485.992126 301.123169,487.215546 
	C300.849731,491.653809 300.938324,496.121704 301.084961,500.572021 
	C301.112213,501.398560 302.040100,502.195435 303.490723,503.007629 
M361.409424,516.189941 
	C360.589417,516.875000 359.083496,517.535706 359.058289,518.248901 
	C358.861450,523.807678 358.949432,529.376587 358.949432,534.942322 
	C359.362885,535.174072 359.776306,535.405884 360.189758,535.637695 
	C361.114868,534.753845 362.830170,533.875305 362.836151,532.985291 
	C362.873474,527.432068 362.528503,521.876282 361.409424,516.189941 
M318.150848,495.462891 
	C318.150848,491.727661 318.150848,487.992401 318.150848,484.257172 
	C317.580505,484.021729 317.010162,483.786285 316.439789,483.550873 
	C315.651123,484.658173 314.251221,485.728729 314.182007,486.879333 
	C313.915100,491.317352 314.180908,495.784302 314.039642,500.233856 
	C313.923492,503.890503 315.873688,503.145294 318.150848,502.619904 
	C318.150848,500.374237 318.150848,498.405243 318.150848,495.462891 
M504.592316,484.273499 
	C504.291351,490.440765 503.990387,496.608063 503.689423,502.775330 
	C504.278809,503.037811 504.868195,503.300262 505.457581,503.562744 
	C506.294342,502.427856 507.771515,501.336823 507.852814,500.150146 
	C508.145630,495.876129 508.129425,491.559479 507.854950,487.283020 
	C507.785706,486.204712 506.321686,485.215912 504.592316,484.273499 
M426.014801,488.747253 
	C426.014923,492.542603 426.153778,496.344543 425.974335,500.131409 
	C425.809814,503.602081 427.591370,503.236267 430.013367,502.697968 
	C430.013367,499.454742 430.013397,496.499725 430.013397,493.544708 
	C430.013397,490.460419 430.013367,487.376129 430.013367,484.291840 
	C429.363312,484.077301 428.713287,483.862732 428.063232,483.648193 
	C427.380463,485.037323 426.697662,486.426483 426.014801,488.747253 
M453.765839,534.946533 
	C455.319427,532.696228 455.015045,531.282104 452.007751,531.250366 
	C447.871246,531.206604 443.721558,531.065857 439.605652,531.360535 
	C438.565979,531.434937 437.633270,533.004395 436.651428,533.886902 
	C436.946869,534.274536 437.242310,534.662109 437.537720,535.049744 
	C442.654388,535.049744 447.771027,535.049744 453.765839,534.946533 
M376.685547,497.431458 
	C376.685547,499.204071 376.685547,500.976715 376.685547,502.844391 
	C378.234772,502.844391 379.341522,502.844391 380.643066,502.844391 
	C380.643066,498.572388 380.643066,494.482178 380.643066,490.029053 
	C379.460693,489.965240 378.256836,489.900269 376.685608,489.815491 
	C376.685608,492.298889 376.685608,494.423798 376.685547,497.431458 
M294.979370,519.792236 
	C294.571564,516.414978 294.571564,516.414978 291.199066,516.683228 
	C291.199066,521.538513 291.199066,526.396851 291.199066,531.255188 
	C291.640381,531.514893 292.081696,531.774658 292.523010,532.034424 
	C293.341644,530.894287 294.693756,529.829712 294.868073,528.598328 
	C295.233521,526.016907 294.979248,523.347717 294.979370,519.792236 
M391.376648,528.948547 
	C392.217682,529.835449 393.058746,530.722412 393.899780,531.609314 
	C394.504181,530.648376 395.541779,529.725281 395.629913,528.719177 
	C395.871216,525.963440 395.713043,523.172668 395.713043,519.928711 
	C394.076447,520.011414 392.750336,520.078491 391.376434,520.147949 
	C391.376434,523.155273 391.376434,525.631226 391.376648,528.948547 
M462.092712,499.330719 
	C462.401245,495.664734 462.709778,491.998749 463.060791,487.828308 
	C461.041718,487.950623 459.703094,488.031708 458.304565,488.116455 
	C458.304565,491.418671 458.038330,494.255707 458.443604,496.993286 
	C458.592896,498.001587 460.326782,498.775299 462.092712,499.330719 
M444.523560,527.346680 
	C447.143799,527.346558 449.792023,527.557312 452.366913,527.215576 
	C453.121307,527.115417 453.667389,525.445374 454.308929,524.494812 
	C450.468658,524.607849 446.628418,524.720886 442.788147,524.833862 
	C443.113312,525.660767 443.438446,526.487732 444.523560,527.346680 
M424.160065,492.812012 
	C420.330353,492.380951 416.500671,491.949890 412.670959,491.518829 
	C412.450531,492.028046 412.230133,492.537262 412.009705,493.046478 
	C412.706909,493.808777 413.589844,495.329346 414.071442,495.211334 
	C417.411804,494.393188 421.432343,497.531799 424.160065,492.812012 
M299.112885,498.083527 
	C296.179779,494.405975 293.246643,490.728424 290.085785,486.765289 
	C288.675171,488.261963 287.851013,489.136414 286.800720,490.250732 
	C289.728333,493.121582 292.325775,495.878632 295.186646,498.328003 
	C295.911530,498.948608 297.475922,498.588684 299.112885,498.083527 
M218.642273,499.609100 
	C223.184921,496.970795 219.849838,492.679047 220.646194,489.248077 
	C220.708557,488.979401 218.428101,488.166931 215.904373,486.981476 
	C216.705811,492.183685 217.274796,495.877045 218.642273,499.609100 
M410.843933,486.890839 
	C409.896179,485.812256 408.948395,484.733643 408.000641,483.655060 
	C407.611145,483.952545 407.221680,484.250031 406.832214,484.547516 
	C406.832214,487.990540 406.832214,491.433563 406.832214,494.928040 
	C409.611603,495.953949 411.114777,495.474945 410.864380,492.255646 
	C410.748566,490.766724 410.844788,489.261292 410.843933,486.890839 
M442.719879,518.494141 
	C443.228760,518.992554 443.724762,519.906738 444.248596,519.922974 
	C448.174377,520.044739 452.105621,519.989319 456.970001,519.989319 
	C456.151520,518.227478 455.623810,516.314087 455.218781,516.339783 
	C451.042938,516.604065 446.886932,517.181763 442.719879,518.494141 
M420.085358,499.248810 
	C417.770630,499.249207 415.412537,498.987793 413.159607,499.361084 
	C412.041626,499.546356 411.116913,500.898010 410.104797,501.721985 
	C410.397858,502.070831 410.690887,502.419708 410.983948,502.768585 
	C415.346375,502.768585 419.708801,502.768585 424.071259,502.768585 
	C424.283447,502.280518 424.495636,501.792480 424.707825,501.304413 
	C423.454956,500.619263 422.202087,499.934082 420.085358,499.248810 
M460.277283,528.745972 
	C460.277283,527.166321 460.277283,525.586731 460.277283,523.796631 
	C458.590118,523.897034 457.493134,523.962280 456.440643,524.024902 
	C455.561981,535.062561 455.561981,535.062561 460.277252,534.478088 
	C460.277252,532.867615 460.277252,531.228455 460.277283,528.745972 
M357.384003,484.120056 
	C348.745026,484.119995 348.745026,484.119995 348.796631,487.712158 
	C353.189148,487.712158 357.578156,487.712158 361.967194,487.712158 
	C362.164185,487.162964 362.361176,486.613739 362.558197,486.064545 
	C361.141998,485.416382 359.725800,484.768250 357.384003,484.120056 
M205.959595,487.995300 
	C206.555740,487.241608 207.151901,486.487885 207.748047,485.734222 
	C203.946030,485.197266 200.155304,484.550140 196.338333,484.159485 
	C193.474121,483.866302 193.651215,485.677094 194.458801,488.004242 
	C197.898544,488.004242 201.482437,488.004242 205.959595,487.995300 
M278.280487,535.061523 
	C279.501160,534.638916 280.753906,534.279968 281.896484,533.702698 
	C282.020844,533.639893 281.506622,531.674194 281.292725,531.675049 
	C276.964722,531.691345 272.636078,531.846191 268.317047,532.122009 
	C268.205200,532.129211 268.200226,533.809143 268.123962,535.061523 
	C271.470459,535.061523 274.411194,535.061523 278.280487,535.061523 
M323.708557,484.120087 
	C320.230713,484.469910 320.230713,484.469910 320.507904,487.780304 
	C324.782501,487.780304 329.057648,487.780304 333.332794,487.780304 
	C333.614716,487.371429 333.896637,486.962524 334.178528,486.553650 
	C333.161987,485.743256 332.235321,484.432800 331.109528,484.230438 
	C329.011230,483.853302 326.797058,484.120850 323.708557,484.120087 
M269.969116,516.125916 
	C269.214203,517.122070 268.459290,518.118225 267.222870,519.749756 
	C272.965179,519.749756 277.350800,519.749756 281.736420,519.749756 
	C281.988281,519.319275 282.240173,518.888855 282.492065,518.458374 
	C281.423492,517.677795 280.419006,516.359985 279.273651,516.223450 
	C276.508942,515.893616 273.678375,516.115723 269.969116,516.125916 
M517.515381,531.237000 
	C511.457977,531.240295 511.457977,531.240295 511.322052,534.716064 
	C515.819031,534.716064 520.309082,534.716064 524.953308,534.716064 
	C524.785767,529.056335 520.681335,532.033142 517.515381,531.237000 
M352.798828,499.237000 
	C348.737579,499.436279 348.737579,499.436279 348.864624,502.898956 
	C353.125977,502.898956 357.393280,502.898956 361.660553,502.898956 
	C361.971649,502.569885 362.282715,502.240784 362.593781,501.911713 
	C361.622375,501.021637 360.768494,499.608887 359.653351,499.358276 
	C357.758667,498.932404 355.699432,499.238495 352.798828,499.237000 
M320.203613,499.795471 
	C320.842743,500.882111 321.408112,502.847076 322.133453,502.908020 
	C325.900299,503.224426 329.707916,503.055359 333.501343,503.055359 
	C333.748566,502.547791 333.995789,502.040192 334.243042,501.532623 
	C333.146912,500.767609 332.098297,499.441711 330.945679,499.344116 
	C327.645569,499.064728 324.303314,499.283600 320.203613,499.795471 
M205.985184,503.049255 
	C206.571289,502.297211 207.157379,501.545135 207.743469,500.793060 
	C204.023911,500.275269 200.313324,499.566742 196.577621,499.390747 
	C195.771957,499.352753 194.867966,501.227966 194.051102,502.255096 
	C194.019287,502.295166 194.422958,502.681488 194.757812,503.056793 
	C198.118866,503.056793 201.603256,503.056793 205.985184,503.049255 
M491.412750,521.807007 
	C489.407593,521.549744 487.817505,521.626892 488.051392,524.441101 
	C488.255341,526.894775 488.215607,529.386353 488.064819,531.847778 
	C487.846130,535.417969 489.510529,535.503662 492.032837,534.519348 
	C492.032837,530.284546 492.032837,526.335632 491.412750,521.807007 
M307.791870,534.942566 
	C307.533539,533.719971 307.379150,531.475586 307.000336,531.437073 
	C304.067230,531.138611 301.069214,531.075562 298.143951,531.405945 
	C297.475616,531.481445 297.011963,533.369263 296.120575,535.052856 
	C300.399170,535.052856 303.663330,535.052856 307.791870,534.942566 
M232.690964,499.239807 
	C230.210175,499.236969 227.690582,498.976959 225.265442,499.342957 
	C224.104004,499.518219 223.121506,500.879059 222.057953,501.702942 
	C222.331711,502.064850 222.605453,502.426788 222.879196,502.788696 
	C226.597763,502.788696 230.316315,502.788696 234.507828,502.788696 
	C234.101120,501.391022 233.800354,500.357391 232.690964,499.239807 
M229.320465,488.009644 
	C230.900543,488.009644 232.480637,488.009644 234.738983,488.009644 
	C232.823257,481.465820 228.089478,485.057800 225.020889,484.277405 
	C224.283829,484.089966 223.033661,485.920135 222.019485,486.822418 
	C222.354340,487.218170 222.689194,487.613892 223.024048,488.009644 
	C224.828781,488.009644 226.633514,488.009644 229.320465,488.009644 
M379.775330,535.054382 
	C383.048889,535.054382 386.322479,535.054382 389.596039,535.054382 
	C389.854553,534.580688 390.113037,534.106934 390.371552,533.633240 
	C389.321869,532.835632 388.220612,531.306519 387.232056,531.376099 
	C384.118286,531.595642 381.046814,532.415344 377.958954,533.002625 
	C378.254639,533.673950 378.550323,534.345337 379.775330,535.054382 
M410.360291,531.848755 
	C411.010834,532.916992 411.565674,534.819580 412.328705,534.907166 
	C415.407257,535.260376 418.550079,535.053528 421.669128,535.053528 
	C421.948242,534.630920 422.227356,534.208252 422.506470,533.785645 
	C421.517670,532.937622 420.597351,531.480774 419.526764,531.360413 
	C416.755707,531.048889 413.918396,531.326721 410.360291,531.848755 
M453.213989,484.120087 
	C451.392578,484.120361 449.491364,483.801147 447.776886,484.229492 
	C446.568573,484.531372 445.613861,485.848419 444.545929,486.712189 
	C444.845581,487.050964 445.145264,487.389740 445.444916,487.728516 
	C449.182251,487.728516 452.919586,487.728516 456.656921,487.728516 
	C456.902985,487.280670 457.149017,486.832794 457.395081,486.384949 
	C456.304016,485.630341 455.212952,484.875732 453.213989,484.120087 
M373.641510,519.871521 
	C373.140564,523.340210 372.519012,526.801147 372.294159,530.287598 
	C372.266602,530.714294 374.365295,531.278137 375.478607,531.778442 
	C375.918884,531.494446 376.359161,531.210388 376.799438,530.926392 
	C376.060333,527.239441 375.321228,523.552429 373.641510,519.871521 
M440.979431,523.245483 
	C440.979004,516.333618 440.979004,516.333618 437.128113,516.732849 
	C437.128113,520.130310 437.128113,523.539673 437.128113,526.939819 
	C440.481995,527.064026 440.481995,527.064026 440.979431,523.245483 
M512.913757,488.009613 
	C515.497986,488.009613 518.082214,488.009613 520.666382,488.009613 
	C520.775208,487.395996 520.883972,486.782379 520.992798,486.168732 
	C518.403870,481.945953 513.765686,485.155731 510.306061,484.090759 
	C509.943817,484.525970 509.581573,484.961212 509.219299,485.396423 
	C510.165009,486.267303 511.110687,487.138184 512.913757,488.009613 
M511.159546,523.261292 
	C511.159546,520.990906 511.159546,518.720520 511.159546,516.445312 
	C506.474213,516.551331 506.257568,517.275269 507.507599,527.086609 
	C510.103271,527.831299 511.576874,527.235291 511.159546,523.261292 
M386.244965,520.004883 
	C387.456177,519.364441 388.667389,518.723938 389.878601,518.083435 
	C388.650055,517.429016 387.482971,516.443176 386.177948,516.201111 
	C384.417419,515.874634 382.468689,515.797119 380.757416,516.230835 
	C379.549194,516.537048 378.601135,517.869751 377.536896,518.744202 
	C377.839447,519.164429 378.141998,519.584656 378.444519,520.004883 
	C380.741058,520.004883 383.037567,520.004883 386.244965,520.004883 
M240.019775,497.927612 
	C240.019775,494.651581 240.019775,491.375519 240.019775,488.105164 
	C235.369598,488.184296 235.176727,488.852112 236.464005,499.678528 
	C237.649902,499.374969 238.773865,499.087280 240.019775,497.927612 
M439.205963,498.749725 
	C440.332458,499.064697 441.458923,499.379669 442.854126,499.769745 
	C442.854126,495.389069 442.854126,491.679779 442.854126,487.970490 
	C442.384583,487.738373 441.915039,487.506226 441.445496,487.274109 
	C440.651855,488.491425 439.387665,489.630524 439.169312,490.943512 
	C438.794220,493.198853 439.071747,495.562714 439.205963,498.749725 
M477.360260,499.848846 
	C478.010834,500.917053 478.565704,502.819550 479.328766,502.907074 
	C482.407349,503.260284 485.550140,503.053497 488.669189,503.053497 
	C488.948303,502.630859 489.227386,502.208221 489.506470,501.785583 
	C488.517639,500.937622 487.597260,499.480682 486.526642,499.360352 
	C483.755585,499.048889 480.918304,499.326721 477.360260,499.848846 
M452.306824,499.237000 
	C449.894623,500.205627 445.317322,496.897400 444.928894,502.832672 
	C449.124756,502.832672 452.870331,502.832672 456.615875,502.832672 
	C456.840942,502.328796 457.066010,501.824921 457.291077,501.321045 
	C455.926697,500.626404 454.562317,499.931793 452.306824,499.237000 
M514.974426,527.329163 
	C524.182312,527.341248 524.182312,527.341248 524.624939,524.083252 
	C520.885925,524.083252 517.174744,524.083252 512.670227,524.083252 
	C513.239929,525.366150 513.667542,526.329041 514.974426,527.329163 
M346.027863,526.460571 
	C343.758057,523.714233 342.610931,525.404724 341.884705,526.804749 
	C344.549744,529.658264 346.978729,532.259033 349.517334,534.977173 
	C350.276215,534.125671 351.001556,533.311768 352.329315,531.821838 
	C350.333649,530.151672 348.436584,528.564026 346.027863,526.460571 
M509.782135,494.050140 
	C513.179565,494.399078 516.574341,494.799530 519.980652,494.974304 
	C520.194458,494.985321 520.498718,493.232544 521.110718,491.056641 
	C516.645020,491.923523 513.206421,492.591003 509.782135,494.050140 
M329.089386,517.628296 
	C329.801575,518.418579 330.456360,519.816956 331.236206,519.890564 
	C334.125488,520.163269 337.056030,519.999146 339.971069,519.999146 
	C340.207947,519.596863 340.444794,519.194641 340.681671,518.792358 
	C339.789886,517.903381 338.935150,516.306274 337.999451,516.257385 
	C335.119415,516.106812 332.208466,516.548279 329.089386,517.628296 
M338.958435,527.290161 
	C341.058472,525.212952 340.866089,523.928101 337.690552,523.847839 
	C334.916718,523.777649 332.139679,523.833191 329.364075,523.833191 
	C329.145630,524.306580 328.927185,524.779968 328.708710,525.253296 
	C329.681671,525.945312 330.588623,527.078674 331.641510,527.235962 
	C333.743103,527.550171 335.924774,527.328918 338.958435,527.290161 
M341.952911,521.399780 
	C342.868866,522.410828 343.784851,523.421875 344.700806,524.432922 
	C345.039490,524.117371 345.378174,523.801880 345.716858,523.486328 
	C345.716858,521.135986 345.716858,518.785583 345.716858,516.506165 
	C341.134888,515.099365 342.048889,518.230042 341.952911,521.399780 
z"/>
<path fill="#B8B4FD" opacity="1.000000" stroke="none" 
	d="
M273.000183,150.379181 
	C284.293152,150.379227 295.086060,150.379227 306.187225,150.379227 
	C306.187225,180.397552 306.187225,209.969437 306.187225,239.831177 
	C279.375580,239.831177 252.636871,239.831177 225.599518,239.831177 
	C225.599518,210.211624 225.599518,180.642471 225.599518,150.379135 
	C241.302994,150.379135 256.901581,150.379135 273.000183,150.379181 
z"/>
<path fill="#B9B5FD" opacity="1.000000" stroke="none" 
	d="
M532.077393,150.949005 
	C532.192383,157.592438 532.393066,164.235718 532.406494,170.879349 
	C532.449219,192.031174 532.422302,213.183151 532.422302,234.335068 
	C532.422302,236.140137 532.422302,237.945206 532.422302,239.877350 
	C505.222351,239.877350 478.479370,239.877350 451.474915,239.877350 
	C451.387421,238.696747 451.254364,237.736145 451.253998,236.775513 
	C451.244049,208.795029 451.245728,180.814545 451.258575,152.834061 
	C451.258881,152.175995 451.409271,151.517990 451.817322,150.422333 
	C452.144928,149.984695 452.605042,149.954193 452.926147,150.282410 
	C454.227417,150.744812 455.207581,150.996094 456.187714,150.996094 
	C481.484283,150.996338 506.780823,150.970413 532.077393,150.949005 
z"/>
<path fill="#FF3131" opacity="1.000000" stroke="none" 
	d="
M141.986374,123.000000 
	C141.986374,101.880295 141.986374,81.260590 141.986374,60.321606 
	C168.991425,60.321606 195.696564,60.321606 222.718170,60.321606 
	C222.718170,90.027344 222.718170,119.731544 222.718170,149.773010 
	C196.014694,149.773010 169.314163,149.773010 141.986374,149.773010 
	C141.986374,141.024902 141.986374,132.262451 141.986374,123.000000 
z"/>
<path fill="#B9B5FE" opacity="1.000000" stroke="none" 
	d="
M66.099541,798.830261 
	C91.337181,798.830261 116.087975,798.830261 141.043152,798.830261 
	C141.043152,828.910767 141.043152,858.487000 141.043152,888.448975 
	C114.301460,888.448975 87.605476,888.448975 60.510735,888.448975 
	C60.510735,858.931091 60.510735,829.247498 60.510735,798.830261 
	C62.117691,798.830261 63.865189,798.830261 66.099541,798.830261 
z"/>
<path fill="#B9B5FE" opacity="1.000000" stroke="none" 
	d="
M451.247131,677.853027 
	C451.247162,649.754333 451.247162,622.136841 451.247162,594.243469 
	C478.387024,594.243469 505.117950,594.243469 532.123779,594.243469 
	C532.123779,624.054321 532.123779,653.776001 532.123779,683.749756 
	C505.324951,683.749756 478.573944,683.749756 451.247131,683.749756 
	C451.247131,681.887939 451.247131,680.111084 451.247131,677.853027 
z"/>
<path fill="#B9B5FD" opacity="1.000000" stroke="none" 
	d="
M390.983215,241.009796 
	C390.983215,270.624939 390.983215,300.240051 390.983215,330.187347 
	C364.172089,330.187347 337.456879,330.187347 310.077850,330.187347 
	C310.077850,300.789795 310.077850,271.404694 310.599915,241.539673 
	C337.742401,241.043106 364.362823,241.026443 390.983215,241.009796 
z"/>
<path fill="#BAB6FF" opacity="1.000000" stroke="none" 
	d="
M452.605042,149.954193 
	C452.605042,149.954193 452.144928,149.984695 452.030884,149.999939 
	C451.694946,148.913101 451.280701,147.811279 451.279297,146.708939 
	C451.243744,118.739525 451.249756,90.770073 451.260315,62.800625 
	C451.260620,62.007587 451.390167,61.214603 451.476715,60.223953 
	C478.466461,60.223953 505.193085,60.223953 532.346497,60.223953 
	C532.346497,89.980453 532.346497,119.558052 531.737183,149.566513 
	C504.953583,149.982986 478.779327,149.968582 452.605042,149.954193 
z"/>
<path fill="#B9B5FD" opacity="1.000000" stroke="none" 
	d="
M310.213989,239.896942 
	C310.213989,210.264481 310.213989,180.632019 310.213989,150.691132 
	C337.111969,150.691132 363.850769,150.691132 391.174225,150.691132 
	C391.174225,180.220322 391.174225,209.645538 390.611084,239.536102 
	C363.436646,239.966599 336.825317,239.931763 310.213989,239.896942 
z"/>
<path fill="#BAB6FF" opacity="1.000000" stroke="none" 
	d="
M140.993591,241.003494 
	C141.078125,266.129456 141.164841,291.255432 141.245148,316.381409 
	C141.259445,320.857880 141.247177,325.334381 141.247177,330.158875 
	C114.212257,330.158875 87.512123,330.158875 60.136005,330.158875 
	C60.136005,300.782806 60.136005,271.408295 60.660721,241.566650 
	C87.788155,241.067490 114.390869,241.035492 140.993591,241.003494 
z"/>
<path fill="#BAB6FF" opacity="1.000000" stroke="none" 
	d="
M60.286289,239.879898 
	C60.286289,210.260025 60.286289,180.640152 60.286289,150.704346 
	C87.193443,150.704346 113.937363,150.704346 141.213608,150.704346 
	C141.213608,180.212418 141.213608,209.647125 140.635422,239.532181 
	C113.466919,239.948318 86.876602,239.914108 60.286289,239.879898 
z"/>
<path fill="#FBFBFB" opacity="1.000000" stroke="none" 
	d="
M185.970459,391.217651 
	C186.016068,395.439941 186.353577,399.287964 185.939926,403.053467 
	C185.237488,409.447632 180.988373,413.193726 174.976105,415.536163 
	C188.759628,419.333130 190.722672,431.856567 188.488083,444.673126 
	C186.559921,455.732391 179.011581,462.075836 167.135315,462.783051 
	C158.333679,463.307190 149.480392,462.965271 140.650116,463.006226 
	C139.008667,463.013824 137.367157,463.007294 135.444427,463.007294 
	C135.444427,433.613403 135.444427,404.524078 135.444427,374.565979 
	C148.187500,375.338440 161.143524,372.929810 173.796371,376.816132 
	C180.589432,378.902618 184.409668,383.949677 185.970459,391.217651 
M154.930817,440.475952 
	C154.930817,443.368561 154.930817,446.261139 154.930817,449.194794 
	C160.611618,449.160980 166.281235,450.139038 168.685013,444.408112 
	C171.184998,438.447723 171.614700,431.863678 167.717117,426.320251 
	C164.727814,422.068634 159.724121,422.709503 154.930817,423.254272 
	C154.930817,428.891785 154.930817,434.186035 154.930817,440.475952 
M166.257111,407.859894 
	C170.180145,403.090942 170.297318,397.639069 167.804169,392.517792 
	C165.314209,387.403137 160.183990,387.643127 155.212631,388.048004 
	C155.212631,395.470428 155.212631,402.666077 155.212631,410.644745 
	C158.963089,409.810944 162.281387,409.073212 166.257111,407.859894 
z"/>
<path fill="#FBFBFB" opacity="1.000000" stroke="none" 
	d="
M339.651184,462.907959 
	C336.179810,451.106415 332.979736,439.429321 330.202881,427.652496 
	C329.362396,424.087799 327.982758,422.688660 323.952637,423.913300 
	C323.952637,436.585449 323.952637,449.472137 323.952637,462.678894 
	C317.214478,462.678894 310.967468,462.678894 304.364014,462.678894 
	C304.364014,433.694641 304.364014,404.481445 304.364014,374.036224 
	C316.963287,374.746094 329.741760,374.796021 342.321686,376.401428 
	C351.275299,377.544098 356.676270,383.871857 357.457275,393.146881 
	C358.343018,403.665680 358.397430,414.053040 347.079681,420.398834 
	C351.023804,434.363678 354.978821,448.366943 359.110016,462.994141 
	C352.547882,462.994141 346.316437,462.994141 339.651184,462.907959 
M331.904297,387.969574 
	C329.297333,387.969574 326.690369,387.969574 323.728607,387.969574 
	C323.728607,392.276703 323.728577,396.222687 323.728577,400.168701 
	C323.728577,404.080109 323.728607,407.991516 323.728607,411.839142 
	C334.366364,412.495514 337.685822,410.893829 339.033691,404.802063 
	C340.950958,396.136932 338.900024,390.658478 331.904297,387.969574 
z"/>
<path fill="#FAFAFA" opacity="1.000000" stroke="none" 
	d="
M448.384430,416.000427 
	C448.526947,425.650970 448.579773,434.804230 448.857849,443.950623 
	C448.963348,447.420319 450.460632,449.998566 454.500031,450.264313 
	C458.708374,450.541199 460.810638,448.446655 460.986755,444.496918 
	C461.186188,440.024353 461.032745,435.536072 461.032745,430.649780 
	C467.744873,430.649780 473.935364,430.649780 481.429688,430.649780 
	C480.464783,437.508911 480.111816,444.299500 478.436523,450.746429 
	C476.693420,457.454224 471.793579,462.147491 464.771088,463.075531 
	C458.755432,463.870575 452.429199,464.293945 446.498413,463.316132 
	C436.080200,461.598419 429.710602,454.168213 429.210480,442.465790 
	C428.536163,426.687592 428.449768,410.828217 429.242767,395.060638 
	C429.909912,381.795349 437.333130,375.017242 450.584595,373.786835 
	C454.844757,373.391296 459.266937,373.554962 463.493286,374.227570 
	C472.337250,375.635010 477.803314,381.188538 479.529266,389.835022 
	C480.587616,395.137024 480.572601,400.653259 481.071899,406.448181 
	C474.238190,406.448181 468.158508,406.448181 461.141785,406.448181 
	C461.141785,402.442474 461.190704,398.351959 461.127777,394.263184 
	C461.067291,390.333893 459.731995,387.302551 455.161621,387.298828 
	C450.771179,387.295258 448.939758,390.051941 448.808380,394.042236 
	C448.572906,401.191864 448.515961,408.347382 448.384430,416.000427 
z"/>
<path fill="#FCFCFC" opacity="1.000000" stroke="none" 
	d="
M368.175964,447.128540 
	C372.816254,422.746826 377.390503,398.787964 381.972626,374.787659 
	C389.489044,374.787659 396.605774,374.787659 404.322845,374.787659 
	C409.772552,403.941193 415.224396,433.106293 420.746307,462.646057 
	C414.766357,462.646057 408.920105,462.646057 402.699402,462.646057 
	C401.718109,456.774689 400.713409,450.763367 399.682007,444.592163 
	C395.499908,444.592163 391.556549,444.592163 386.970032,444.592163 
	C385.934235,450.438171 384.872284,456.432007 383.758362,462.719147 
	C377.756744,462.719147 371.680389,462.719147 365.362122,462.719147 
	C366.289429,457.600433 367.199677,452.575897 368.175964,447.128540 
M396.757751,423.662109 
	C395.712189,416.452942 394.666626,409.243774 393.621063,402.034607 
	C393.259033,402.064941 392.897034,402.095276 392.535004,402.125641 
	C391.271729,412.149628 390.008423,422.173615 388.728302,432.331268 
	C392.023285,432.331268 394.849457,432.331268 397.780212,432.331268 
	C397.448578,429.454132 397.164886,426.992859 396.757751,423.662109 
z"/>
<path fill="#FCFCFC" opacity="1.000000" stroke="none" 
	d="
M115.226898,402.623444 
	C119.024689,422.812042 122.736473,442.581329 126.514458,462.703186 
	C120.316742,462.703186 114.453163,462.703186 108.403114,462.703186 
	C107.600334,457.662872 106.627220,452.784241 106.114189,447.857697 
	C105.819260,445.025574 104.626617,444.369110 101.977669,444.317596 
	C92.476524,444.132996 92.481964,444.037170 91.068527,453.425140 
	C90.622795,456.385681 90.152458,459.342529 89.639069,462.651154 
	C83.603661,462.651154 77.528847,462.651154 71.061783,462.651154 
	C76.579109,433.460449 82.089378,404.307129 87.640938,374.935303 
	C95.118515,374.935303 102.373787,374.935303 110.114006,374.935303 
	C111.775482,383.948151 113.458183,393.076111 115.226898,402.623444 
M98.595886,432.739960 
	C100.154648,432.739960 101.713402,432.739960 103.685242,432.739960 
	C102.195480,422.005249 100.819885,412.093140 99.444283,402.181000 
	C97.210609,411.336304 96.112801,420.390411 94.759346,429.406097 
	C94.345375,432.163635 95.132729,433.117035 98.595886,432.739960 
z"/>
<path fill="#FBFBFB" opacity="1.000000" stroke="none" 
	d="
M214.805359,439.800720 
	C216.081207,447.180817 218.803696,450.114960 223.172577,449.190399 
	C226.792297,448.424377 228.374878,443.457977 225.889603,437.627411 
	C224.380630,434.087311 221.716217,430.873108 219.009003,428.051575 
	C215.446320,424.338348 211.279251,421.212128 207.465332,417.731262 
	C200.398041,411.281158 196.939789,403.411835 197.807678,393.678009 
	C198.750961,383.098450 205.309540,375.759857 215.801071,374.018921 
	C216.293701,373.937164 216.794098,373.903412 217.289688,373.838379 
	C235.133789,371.496887 244.345657,379.838593 244.087601,398.603546 
	C238.801895,399.257111 233.446686,399.919281 227.793823,400.618256 
	C227.378189,397.521332 227.509918,394.538605 226.462112,392.053131 
	C225.731949,390.321167 223.329971,388.148224 221.773621,388.223175 
	C220.120651,388.302826 217.685150,390.541199 217.171936,392.298462 
	C215.831970,396.886688 217.181442,401.263672 220.681564,404.636627 
	C225.236450,409.026093 229.986298,413.212616 234.624573,417.516327 
	C242.179169,424.526062 246.746506,432.813721 246.108185,443.508057 
	C245.569458,452.533447 240.043289,460.078400 231.465515,463.000183 
	C212.417221,469.488434 198.172241,458.446014 197.762344,436.287781 
	C202.996704,435.472412 208.315796,434.643829 213.960770,433.764496 
	C214.258652,435.867676 214.507034,437.621277 214.805359,439.800720 
z"/>
<path fill="#FBFBFB" opacity="1.000000" stroke="none" 
	d="
M256.027557,389.157043 
	C253.907867,389.157043 252.269882,389.157043 250.364594,389.157043 
	C250.364594,384.255646 250.364594,379.681152 250.364594,374.883545 
	C265.561249,374.883545 280.668243,374.883545 296.091858,374.883545 
	C296.091858,379.514557 296.091858,384.083344 296.091858,389.065094 
	C291.972809,389.065094 287.879791,389.065094 283.287659,389.065094 
	C283.287659,413.838776 283.287659,438.211578 283.287659,462.793518 
	C276.511475,462.793518 270.240295,462.793518 263.429199,462.793518 
	C263.429199,438.368896 263.429199,413.979584 263.429199,389.157043 
	C260.767853,389.157043 258.638580,389.157043 256.027557,389.157043 
z"/>
<path fill="#FCFCFC" opacity="1.000000" stroke="none" 
	d="
M485.710999,384.992615 
	C485.710938,381.360565 485.710938,378.218170 485.710938,374.876892 
	C501.227844,374.876892 516.337952,374.876892 531.698486,374.876892 
	C531.698486,379.574127 531.698486,384.133881 531.698486,389.131287 
	C527.479675,389.131287 523.392700,389.131287 518.952026,389.131287 
	C518.952026,413.812225 518.952026,438.063232 518.952026,462.658264 
	C512.212341,462.658264 505.835114,462.658264 499.149353,462.658264 
	C499.149353,438.398315 499.149353,414.130554 499.149353,389.152771 
	C495.610596,389.152771 492.340576,388.943024 489.110718,389.213440 
	C486.050690,389.469574 485.309845,388.123322 485.710999,384.992615 
z"/>
<path fill="#E7E7E7" opacity="1.000000" stroke="none" 
	d="
M253.159500,501.359741 
	C252.000061,502.316864 250.852295,502.833710 249.259003,503.551178 
	C249.259003,496.849396 249.259003,490.896576 249.260498,484.942535 
	C252.695602,484.131714 252.695602,484.131714 253.852448,488.733887 
	C261.561615,486.321838 262.266785,494.764740 268.161346,497.081085 
	C266.486328,498.464752 265.542938,499.244080 263.397034,501.016724 
	C260.584595,497.402740 257.849274,493.887909 255.113953,490.373047 
	C254.466354,490.584473 253.818771,490.795868 253.171173,491.007294 
	C253.171173,494.311340 253.171173,497.615417 253.159500,501.359741 
z"/>
<path fill="#E1E1E1" opacity="1.000000" stroke="none" 
	d="
M526.385498,525.989624 
	C526.385498,522.547791 526.385498,519.583008 526.385498,516.618286 
	C526.844055,516.308777 527.302673,515.999329 527.761230,515.689880 
	C528.741760,516.728149 530.508240,517.722351 530.569336,518.812195 
	C530.865173,524.086182 530.702759,529.385925 530.702759,535.151917 
	C523.587219,534.507202 527.577637,529.253662 526.385498,525.989624 
z"/>
<path fill="#CDCDCD" opacity="1.000000" stroke="none" 
	d="
M473.356934,534.346313 
	C470.699799,535.516418 468.987335,535.427368 469.127502,532.034607 
	C469.305267,527.731262 469.244141,523.413452 469.147247,519.104980 
	C469.073364,515.818909 470.668701,515.564026 473.547485,516.636414 
	C473.547485,522.382996 473.547485,528.160217 473.356934,534.346313 
z"/>
<path fill="#CDCDCD" opacity="1.000000" stroke="none" 
	d="
M323.177551,518.513306 
	C324.204102,517.238953 325.224304,516.412354 326.244507,515.585754 
	C326.698669,515.829590 327.152832,516.073425 327.606995,516.317261 
	C327.606995,521.875488 327.763214,527.442383 327.458893,532.983887 
	C327.405914,533.949036 325.410980,534.807556 324.312988,535.715332 
	C323.932404,535.402222 323.551788,535.089172 323.171204,534.776062 
	C323.171204,529.504395 323.171204,524.232788 323.177551,518.513306 
z"/>
<path fill="#E1E1E1" opacity="1.000000" stroke="none" 
	d="
M268.383698,495.888977 
	C268.385010,491.786804 268.385010,488.160065 268.385010,484.687073 
	C271.670868,483.449127 272.818146,484.369293 272.740295,487.398376 
	C272.612671,492.366211 272.705750,497.339691 272.705750,502.702728 
	C271.293945,502.820343 270.083954,502.921143 268.382385,503.062927 
	C268.382385,500.614105 268.382385,498.489258 268.383698,495.888977 
z"/>
<path fill="#E7E7E7" opacity="1.000000" stroke="none" 
	d="
M285.837555,498.737457 
	C286.094971,501.913971 285.716461,503.970581 281.910461,502.684174 
	C281.910461,496.723602 281.910461,490.669769 281.910461,484.585938 
	C284.703827,483.497528 285.988647,484.213226 285.869873,487.326080 
	C285.730865,490.969391 285.837524,494.622070 285.837555,498.737457 
z"/>
<path fill="#CDCDCD" opacity="1.000000" stroke="none" 
	d="
M266.615570,520.362976 
	C266.615631,525.437988 266.615631,530.055298 266.615631,534.816528 
	C264.982819,534.816528 263.754578,534.816528 262.170135,534.816528 
	C262.170135,529.601868 262.034760,524.647705 262.265076,519.710510 
	C262.322845,518.472168 263.555145,517.288757 264.247620,516.080078 
	C265.036926,517.355164 265.826233,518.630188 266.615570,520.362976 
z"/>
<path fill="#E7E7E7" opacity="1.000000" stroke="none" 
	d="
M346.837524,498.737457 
	C347.094971,501.913971 346.716461,503.970581 342.910461,502.684174 
	C342.910461,496.723602 342.910461,490.669769 342.910461,484.585907 
	C345.703674,483.497742 346.988586,484.212860 346.869690,487.326080 
	C346.730499,490.969360 346.837402,494.622070 346.837524,498.737457 
z"/>
<path fill="#7875A4" opacity="1.000000" stroke="none" 
	d="
M310.165131,240.198776 
	C336.825317,239.931763 363.436646,239.966599 390.515472,239.995667 
	C391.027130,240.159897 391.071320,240.329865 391.049347,240.754807 
	C364.362823,241.026443 337.742401,241.043106 310.667664,241.082077 
	C310.180969,240.903137 310.148621,240.701874 310.165131,240.198776 
z"/>
<path fill="#7D7AAB" opacity="1.000000" stroke="none" 
	d="
M60.235664,240.190674 
	C86.876602,239.914108 113.466919,239.948318 140.525421,239.989471 
	C141.038269,240.164276 141.082932,240.332123 141.060608,240.751740 
	C114.390869,241.035492 87.788155,241.067490 60.735401,241.111328 
	C60.251930,240.915924 60.218487,240.708679 60.235664,240.190674 
z"/>
<path fill="#E5E5E5" opacity="1.000000" stroke="none" 
	d="
M382.747803,484.129974 
	C385.282745,484.599213 389.052399,482.543732 388.263794,487.722534 
	C381.927216,487.722534 375.698517,487.722534 369.469849,487.722534 
	C369.178864,487.371216 368.887848,487.019867 368.596863,486.668549 
	C369.672852,485.822632 370.690735,484.354279 371.835754,484.247314 
	C375.293427,483.924408 378.800476,484.130280 382.747803,484.129974 
z"/>
<path fill="#CDCDCD" opacity="1.000000" stroke="none" 
	d="
M471.244263,498.233948 
	C471.184479,493.518494 471.184479,489.226929 471.184479,484.764221 
	C474.022522,483.538025 475.710754,483.671448 475.629211,487.234558 
	C475.557251,490.379791 475.628998,493.528107 475.610474,496.674866 
	C475.588715,500.376251 473.903748,500.524750 471.244263,498.233948 
z"/>
<path fill="#DFDFDF" opacity="1.000000" stroke="none" 
	d="
M408.534607,525.789185 
	C408.532745,527.233582 408.826630,528.363708 408.451263,529.189758 
	C408.019531,530.140076 406.995850,530.821472 406.229248,531.619629 
	C405.565155,530.878235 404.370758,530.166504 404.327454,529.390442 
	C404.124237,525.750610 404.023193,522.072327 404.373108,518.454956 
	C404.473480,517.417236 406.203827,516.537048 407.186829,515.584656 
	C407.636108,515.883362 408.085388,516.182068 408.534668,516.480774 
	C408.534668,519.434021 408.534668,522.387329 408.534607,525.789185 
z"/>
<path fill="#E1E1E1" opacity="1.000000" stroke="none" 
	d="
M486.231262,516.119995 
	C490.194702,516.120422 493.709045,515.936646 497.184509,516.223633 
	C498.359283,516.320618 499.435638,517.609680 500.557007,518.353882 
	C500.320190,518.811890 500.083374,519.269897 499.846558,519.727905 
	C493.580627,519.727905 487.314667,519.727905 481.046814,519.725037 
	C480.643616,516.158203 480.643616,516.158203 486.231262,516.119995 
z"/>
<path fill="#7D7AAB" opacity="1.000000" stroke="none" 
	d="
M452.926147,150.282410 
	C478.779327,149.968582 504.953583,149.982986 531.601074,150.021271 
	C532.074280,150.045166 532.235474,150.496536 532.156433,150.722778 
	C506.780823,150.970413 481.484283,150.996338 456.187714,150.996094 
	C455.207581,150.996094 454.227417,150.744812 452.926147,150.282410 
z"/>
<path fill="#E5E5E5" opacity="1.000000" stroke="none" 
	d="
M311.903931,516.149536 
	C312.983093,516.846191 314.173553,517.533752 314.204681,518.270386 
	C314.385284,522.544495 314.292999,526.830078 314.292999,531.858826 
	C312.621796,531.412170 310.494629,531.074158 310.503967,530.812012 
	C310.677643,525.923706 311.105377,521.044312 311.903931,516.149536 
z"/>
<path fill="#E7E7E7" opacity="1.000000" stroke="none" 
	d="
M494.920288,491.976013 
	C494.920044,493.922211 495.286621,495.541718 494.812347,496.858368 
	C494.372559,498.079437 493.034454,498.976959 492.091919,500.016968 
	C491.656006,499.710999 491.220062,499.404999 490.784149,499.099030 
	C490.784149,494.990906 490.591766,490.867615 490.913147,486.784790 
	C490.998352,485.702087 492.663239,484.743744 493.602753,483.728302 
	C494.041931,484.035034 494.481110,484.341736 494.920288,484.648468 
	C494.920288,486.938049 494.920288,489.227661 494.920288,491.976013 
z"/>
<path fill="#E7E7E7" opacity="1.000000" stroke="none" 
	d="
M427.920288,527.601685 
	C428.178741,530.675232 427.553528,532.353821 424.091125,531.230042 
	C424.091125,526.434631 424.091125,521.557434 424.091125,516.550476 
	C426.632050,515.590942 428.105011,516.017273 427.946411,519.220764 
	C427.815643,521.861267 427.920074,524.513489 427.920288,527.601685 
z"/>
<path fill="#F0F0F0" opacity="1.000000" stroke="none" 
	d="
M192.150314,487.309814 
	C192.150803,492.705750 192.150803,497.631165 192.150803,502.556580 
	C191.765488,502.879211 191.380173,503.201843 190.994873,503.524475 
	C190.021301,502.503052 188.266418,501.525269 188.206543,500.452820 
	C187.914154,495.216248 188.074158,489.954407 188.074158,484.701508 
	C188.528656,484.393066 188.983139,484.084656 189.437637,483.776245 
	C190.341690,484.797241 191.245758,485.818268 192.150314,487.309814 
z"/>
<path fill="#F8F8F8" opacity="1.000000" stroke="none" 
	d="
M303.021515,503.006805 
	C302.040100,502.195435 301.112213,501.398560 301.084961,500.572021 
	C300.938324,496.121704 300.849731,491.653809 301.123169,487.215546 
	C301.198578,485.992126 302.584015,484.849487 303.368378,483.669800 
	C303.910370,483.905762 304.452393,484.141754 304.994385,484.377716 
	C304.994385,490.111359 305.030579,495.845612 304.929199,501.577423 
	C304.920593,502.062500 303.991943,502.531281 303.021515,503.006805 
z"/>
<path fill="#F5F5F5" opacity="1.000000" stroke="none" 
	d="
M361.859802,516.255615 
	C362.528503,521.876282 362.873474,527.432068 362.836151,532.985291 
	C362.830170,533.875305 361.114868,534.753845 360.189758,535.637695 
	C359.776306,535.405884 359.362885,535.174072 358.949432,534.942322 
	C358.949432,529.376587 358.861450,523.807678 359.058289,518.248901 
	C359.083496,517.535706 360.589417,516.875000 361.859802,516.255615 
z"/>
<path fill="#F0F0F0" opacity="1.000000" stroke="none" 
	d="
M318.150848,495.949585 
	C318.150848,498.405243 318.150848,500.374237 318.150848,502.619904 
	C315.873688,503.145294 313.923492,503.890503 314.039642,500.233856 
	C314.180908,495.784302 313.915100,491.317352 314.182007,486.879333 
	C314.251221,485.728729 315.651123,484.658173 316.439789,483.550873 
	C317.010162,483.786285 317.580505,484.021729 318.150848,484.257172 
	C318.150848,487.992401 318.150848,491.727661 318.150848,495.949585 
z"/>
<path fill="#F5F5F5" opacity="1.000000" stroke="none" 
	d="
M505.045471,484.229736 
	C506.321686,485.215912 507.785706,486.204712 507.854950,487.283020 
	C508.129425,491.559479 508.145630,495.876129 507.852814,500.150146 
	C507.771515,501.336823 506.294342,502.427856 505.457581,503.562744 
	C504.868195,503.300262 504.278809,503.037811 503.689423,502.775330 
	C503.990387,496.608063 504.291351,490.440765 505.045471,484.229736 
z"/>
<path fill="#F8F8F8" opacity="1.000000" stroke="none" 
	d="
M426.014832,488.281433 
	C426.697662,486.426483 427.380463,485.037323 428.063232,483.648193 
	C428.713287,483.862732 429.363312,484.077301 430.013367,484.291840 
	C430.013367,487.376129 430.013397,490.460419 430.013397,493.544708 
	C430.013397,496.499725 430.013367,499.454742 430.013367,502.697968 
	C427.591370,503.236267 425.809814,503.602081 425.974335,500.131409 
	C426.153778,496.344543 426.014923,492.542603 426.014832,488.281433 
z"/>
<path fill="#E1E1E1" opacity="1.000000" stroke="none" 
	d="
M453.326752,534.998169 
	C447.771027,535.049744 442.654388,535.049744 437.537720,535.049744 
	C437.242310,534.662109 436.946869,534.274536 436.651428,533.886902 
	C437.633270,533.004395 438.565979,531.434937 439.605652,531.360535 
	C443.721558,531.065857 447.871246,531.206604 452.007751,531.250366 
	C455.015045,531.282104 455.319427,532.696228 453.326752,534.998169 
z"/>
<path fill="#ECECEC" opacity="1.000000" stroke="none" 
	d="
M376.685577,496.990112 
	C376.685608,494.423798 376.685608,492.298889 376.685608,489.815491 
	C378.256836,489.900269 379.460693,489.965240 380.643066,490.029053 
	C380.643066,494.482178 380.643066,498.572388 380.643066,502.844391 
	C379.341522,502.844391 378.234772,502.844391 376.685547,502.844391 
	C376.685547,500.976715 376.685547,499.204071 376.685577,496.990112 
z"/>
<path fill="#F0F0F0" opacity="1.000000" stroke="none" 
	d="
M294.979401,520.253418 
	C294.979248,523.347717 295.233521,526.016907 294.868073,528.598328 
	C294.693756,529.829712 293.341644,530.894287 292.523010,532.034424 
	C292.081696,531.774658 291.640381,531.514893 291.199066,531.255188 
	C291.199066,526.396851 291.199066,521.538513 291.199066,516.683228 
	C294.571564,516.414978 294.571564,516.414978 294.979401,520.253418 
z"/>
<path fill="#DFDFDF" opacity="1.000000" stroke="none" 
	d="
M391.376526,528.527832 
	C391.376434,525.631226 391.376434,523.155273 391.376434,520.147949 
	C392.750336,520.078491 394.076447,520.011414 395.713043,519.928711 
	C395.713043,523.172668 395.871216,525.963440 395.629913,528.719177 
	C395.541779,529.725281 394.504181,530.648376 393.899780,531.609314 
	C393.058746,530.722412 392.217682,529.835449 391.376526,528.527832 
z"/>
<path fill="#CDCDCD" opacity="1.000000" stroke="none" 
	d="
M461.715302,499.493378 
	C460.326782,498.775299 458.592896,498.001587 458.443604,496.993286 
	C458.038330,494.255707 458.304565,491.418671 458.304565,488.116455 
	C459.703094,488.031708 461.041718,487.950623 463.060791,487.828308 
	C462.709778,491.998749 462.401245,495.664734 461.715302,499.493378 
z"/>
<path fill="#F5F5F5" opacity="1.000000" stroke="none" 
	d="
M444.143555,527.330688 
	C443.438446,526.487732 443.113312,525.660767 442.788147,524.833862 
	C446.628418,524.720886 450.468658,524.607849 454.308929,524.494812 
	C453.667389,525.445374 453.121307,527.115417 452.366913,527.215576 
	C449.792023,527.557312 447.143799,527.346558 444.143555,527.330688 
z"/>
<path fill="#F5F5F5" opacity="1.000000" stroke="none" 
	d="
M424.176666,493.176086 
	C421.432343,497.531799 417.411804,494.393188 414.071442,495.211334 
	C413.589844,495.329346 412.706909,493.808777 412.009705,493.046478 
	C412.230133,492.537262 412.450531,492.028046 412.670959,491.518829 
	C416.500671,491.949890 420.330353,492.380951 424.176666,493.176086 
z"/>
<path fill="#E1E1E1" opacity="1.000000" stroke="none" 
	d="
M298.883728,498.381409 
	C297.475922,498.588684 295.911530,498.948608 295.186646,498.328003 
	C292.325775,495.878632 289.728333,493.121582 286.800720,490.250732 
	C287.851013,489.136414 288.675171,488.261963 290.085785,486.765289 
	C293.246643,490.728424 296.179779,494.405975 298.883728,498.381409 
z"/>
<path fill="#E5E5E5" opacity="1.000000" stroke="none" 
	d="
M218.243027,499.589752 
	C217.274796,495.877045 216.705811,492.183685 215.904373,486.981476 
	C218.428101,488.166931 220.708557,488.979401 220.646194,489.248077 
	C219.849838,492.679047 223.184921,496.970795 218.243027,499.589752 
z"/>
<path fill="#E5E5E5" opacity="1.000000" stroke="none" 
	d="
M410.844421,487.327087 
	C410.844788,489.261292 410.748566,490.766724 410.864380,492.255646 
	C411.114777,495.474945 409.611603,495.953949 406.832214,494.928040 
	C406.832214,491.433563 406.832214,487.990540 406.832214,484.547516 
	C407.221680,484.250031 407.611145,483.952545 408.000641,483.655060 
	C408.948395,484.733643 409.896179,485.812256 410.844421,487.327087 
z"/>
<path fill="#E5E5E5" opacity="1.000000" stroke="none" 
	d="
M442.722656,518.083191 
	C446.886932,517.181763 451.042938,516.604065 455.218781,516.339783 
	C455.623810,516.314087 456.151520,518.227478 456.970001,519.989319 
	C452.105621,519.989319 448.174377,520.044739 444.248596,519.922974 
	C443.724762,519.906738 443.228760,518.992554 442.722656,518.083191 
z"/>
<path fill="#E5E5E5" opacity="1.000000" stroke="none" 
	d="
M420.517273,499.248871 
	C422.202087,499.934082 423.454956,500.619263 424.707825,501.304413 
	C424.495636,501.792480 424.283447,502.280518 424.071259,502.768585 
	C419.708801,502.768585 415.346375,502.768585 410.983948,502.768585 
	C410.690887,502.419708 410.397858,502.070831 410.104797,501.721985 
	C411.116913,500.898010 412.041626,499.546356 413.159607,499.361084 
	C415.412537,498.987793 417.770630,499.249207 420.517273,499.248871 
z"/>
<path fill="#ECECEC" opacity="1.000000" stroke="none" 
	d="
M460.277283,529.167603 
	C460.277252,531.228455 460.277252,532.867615 460.277252,534.478088 
	C455.561981,535.062561 455.561981,535.062561 456.440643,524.024902 
	C457.493134,523.962280 458.590118,523.897034 460.277283,523.796631 
	C460.277283,525.586731 460.277283,527.166321 460.277283,529.167603 
z"/>
<path fill="#E1E1E1" opacity="1.000000" stroke="none" 
	d="
M357.846802,484.120056 
	C359.725800,484.768250 361.141998,485.416382 362.558197,486.064545 
	C362.361176,486.613739 362.164185,487.162964 361.967194,487.712158 
	C357.578156,487.712158 353.189148,487.712158 348.796631,487.712158 
	C348.745026,484.119995 348.745026,484.119995 357.846802,484.120056 
z"/>
<path fill="#E1E1E1" opacity="1.000000" stroke="none" 
	d="
M205.512955,487.999756 
	C201.482437,488.004242 197.898544,488.004242 194.458801,488.004242 
	C193.651215,485.677094 193.474121,483.866302 196.338333,484.159485 
	C200.155304,484.550140 203.946030,485.197266 207.748047,485.734192 
	C207.151901,486.487885 206.555740,487.241608 205.512955,487.999756 
z"/>
<path fill="#DFDFDF" opacity="1.000000" stroke="none" 
	d="
M277.816223,535.061523 
	C274.411194,535.061523 271.470459,535.061523 268.123962,535.061523 
	C268.200226,533.809143 268.205200,532.129211 268.317047,532.122009 
	C272.636078,531.846191 276.964722,531.691345 281.292725,531.675049 
	C281.506622,531.674194 282.020844,533.639893 281.896484,533.702698 
	C280.753906,534.279968 279.501160,534.638916 277.816223,535.061523 
z"/>
<path fill="#E1E1E1" opacity="1.000000" stroke="none" 
	d="
M324.169861,484.120056 
	C326.797058,484.120850 329.011230,483.853302 331.109528,484.230438 
	C332.235321,484.432800 333.161987,485.743256 334.178528,486.553650 
	C333.896637,486.962524 333.614716,487.371429 333.332794,487.780304 
	C329.057648,487.780304 324.782501,487.780304 320.507904,487.780304 
	C320.230713,484.469910 320.230713,484.469910 324.169861,484.120056 
z"/>
<path fill="#DFDFDF" opacity="1.000000" stroke="none" 
	d="
M270.421753,516.120605 
	C273.678375,516.115723 276.508942,515.893616 279.273651,516.223450 
	C280.419006,516.359985 281.423492,517.677795 282.492065,518.458374 
	C282.240173,518.888855 281.988281,519.319275 281.736420,519.749756 
	C277.350800,519.749756 272.965179,519.749756 267.222870,519.749756 
	C268.459290,518.118225 269.214203,517.122070 270.421753,516.120605 
z"/>
<path fill="#E1E1E1" opacity="1.000000" stroke="none" 
	d="
M517.978394,531.237000 
	C520.681335,532.033142 524.785767,529.056335 524.953308,534.716064 
	C520.309082,534.716064 515.819031,534.716064 511.322052,534.716064 
	C511.457977,531.240295 511.457977,531.240295 517.978394,531.237000 
z"/>
<path fill="#E1E1E1" opacity="1.000000" stroke="none" 
	d="
M353.254089,499.237000 
	C355.699432,499.238495 357.758667,498.932404 359.653351,499.358276 
	C360.768494,499.608887 361.622375,501.021637 362.593781,501.911713 
	C362.282715,502.240784 361.971649,502.569885 361.660553,502.898956 
	C357.393280,502.898956 353.125977,502.898956 348.864624,502.898956 
	C348.737579,499.436279 348.737579,499.436279 353.254089,499.237000 
z"/>
<path fill="#E1E1E1" opacity="1.000000" stroke="none" 
	d="
M320.590637,499.551025 
	C324.303314,499.283600 327.645569,499.064728 330.945679,499.344116 
	C332.098297,499.441711 333.146912,500.767609 334.243042,501.532623 
	C333.995789,502.040192 333.748566,502.547791 333.501343,503.055359 
	C329.707916,503.055359 325.900299,503.224426 322.133453,502.908020 
	C321.408112,502.847076 320.842743,500.882111 320.590637,499.551025 
z"/>
<path fill="#E1E1E1" opacity="1.000000" stroke="none" 
	d="
M205.536423,503.053040 
	C201.603256,503.056793 198.118866,503.056793 194.757812,503.056793 
	C194.422958,502.681488 194.019287,502.295166 194.051102,502.255096 
	C194.867966,501.227966 195.771957,499.352753 196.577621,499.390747 
	C200.313324,499.566742 204.023911,500.275269 207.743469,500.793060 
	C207.157379,501.545135 206.571289,502.297211 205.536423,503.053040 
z"/>
<path fill="#F5F5F5" opacity="1.000000" stroke="none" 
	d="
M491.722778,522.096924 
	C492.032837,526.335632 492.032837,530.284546 492.032837,534.519348 
	C489.510529,535.503662 487.846130,535.417969 488.064819,531.847778 
	C488.215607,529.386353 488.255341,526.894775 488.051392,524.441101 
	C487.817505,521.626892 489.407593,521.549744 491.722778,522.096924 
z"/>
<path fill="#DFDFDF" opacity="1.000000" stroke="none" 
	d="
M307.359680,534.997681 
	C303.663330,535.052856 300.399170,535.052856 296.120575,535.052856 
	C297.011963,533.369263 297.475616,531.481445 298.143951,531.405945 
	C301.069214,531.075562 304.067230,531.138611 307.000336,531.437073 
	C307.379150,531.475586 307.533539,533.719971 307.359680,534.997681 
z"/>
<path fill="#DFDFDF" opacity="1.000000" stroke="none" 
	d="
M233.095276,499.281799 
	C233.800354,500.357391 234.101120,501.391022 234.507828,502.788696 
	C230.316315,502.788696 226.597763,502.788696 222.879196,502.788696 
	C222.605453,502.426788 222.331711,502.064850 222.057953,501.702942 
	C223.121506,500.879059 224.104004,499.518219 225.265442,499.342957 
	C227.690582,498.976959 230.210175,499.236969 233.095276,499.281799 
z"/>
<path fill="#DFDFDF" opacity="1.000000" stroke="none" 
	d="
M228.879364,488.009644 
	C226.633514,488.009644 224.828781,488.009644 223.024048,488.009644 
	C222.689194,487.613892 222.354340,487.218170 222.019485,486.822418 
	C223.033661,485.920135 224.283829,484.089966 225.020889,484.277405 
	C228.089478,485.057800 232.823257,481.465820 234.738983,488.009644 
	C232.480637,488.009644 230.900543,488.009644 228.879364,488.009644 
z"/>
<path fill="#E1E1E1" opacity="1.000000" stroke="none" 
	d="
M379.310669,535.035522 
	C378.550323,534.345337 378.254639,533.673950 377.958954,533.002686 
	C381.046814,532.415344 384.118286,531.595642 387.232056,531.376099 
	C388.220612,531.306519 389.321869,532.835632 390.371552,533.633240 
	C390.113037,534.106934 389.854553,534.580688 389.596039,535.054382 
	C386.322479,535.054382 383.048889,535.054382 379.310669,535.035522 
z"/>
<path fill="#E1E1E1" opacity="1.000000" stroke="none" 
	d="
M410.733917,531.609009 
	C413.918396,531.326721 416.755707,531.048889 419.526764,531.360413 
	C420.597351,531.480774 421.517670,532.937622 422.506470,533.785645 
	C422.227356,534.208252 421.948242,534.630920 421.669128,535.053528 
	C418.550079,535.053528 415.407257,535.260376 412.328705,534.907166 
	C411.565674,534.819580 411.010834,532.916992 410.733917,531.609009 
z"/>
<path fill="#E1E1E1" opacity="1.000000" stroke="none" 
	d="
M453.667908,484.120605 
	C455.212952,484.875732 456.304016,485.630341 457.395081,486.384949 
	C457.149017,486.832794 456.902985,487.280670 456.656921,487.728516 
	C452.919586,487.728516 449.182251,487.728516 445.444916,487.728516 
	C445.145264,487.389740 444.845581,487.050964 444.545929,486.712189 
	C445.613861,485.848419 446.568573,484.531372 447.776886,484.229492 
	C449.491364,483.801147 451.392578,484.120361 453.667908,484.120605 
z"/>
<path fill="#ECECEC" opacity="1.000000" stroke="none" 
	d="
M374.111816,519.868530 
	C375.321228,523.552429 376.060333,527.239441 376.799438,530.926392 
	C376.359161,531.210388 375.918884,531.494446 375.478607,531.778442 
	C374.365295,531.278137 372.266602,530.714294 372.294159,530.287598 
	C372.519012,526.801147 373.140564,523.340210 374.111816,519.868530 
z"/>
<path fill="#F0F0F0" opacity="1.000000" stroke="none" 
	d="
M440.979401,523.678101 
	C440.481995,527.064026 440.481995,527.064026 437.128113,526.939819 
	C437.128113,523.539673 437.128113,520.130310 437.128113,516.732849 
	C440.979004,516.333618 440.979004,516.333618 440.979401,523.678101 
z"/>
<path fill="#DFDFDF" opacity="1.000000" stroke="none" 
	d="
M512.485107,488.009338 
	C511.110687,487.138184 510.165009,486.267303 509.219299,485.396423 
	C509.581573,484.961212 509.943817,484.525970 510.306061,484.090759 
	C513.765686,485.155731 518.403870,481.945953 520.992798,486.168732 
	C520.883972,486.782379 520.775208,487.395996 520.666382,488.009613 
	C518.082214,488.009613 515.497986,488.009613 512.485107,488.009338 
z"/>
<path fill="#ECECEC" opacity="1.000000" stroke="none" 
	d="
M511.159515,523.699097 
	C511.576874,527.235291 510.103271,527.831299 507.507599,527.086609 
	C506.257568,517.275269 506.474213,516.551331 511.159546,516.445312 
	C511.159546,518.720520 511.159546,520.990906 511.159515,523.699097 
z"/>
<path fill="#E1E1E1" opacity="1.000000" stroke="none" 
	d="
M385.789551,520.004883 
	C383.037567,520.004883 380.741058,520.004883 378.444519,520.004883 
	C378.141998,519.584656 377.839447,519.164429 377.536896,518.744202 
	C378.601135,517.869751 379.549194,516.537048 380.757416,516.230835 
	C382.468689,515.797119 384.417419,515.874634 386.177948,516.201111 
	C387.482971,516.443176 388.650055,517.429016 389.878601,518.083435 
	C388.667389,518.723938 387.456177,519.364441 385.789551,520.004883 
z"/>
<path fill="#F0F0F0" opacity="1.000000" stroke="none" 
	d="
M239.958801,498.363586 
	C238.773865,499.087280 237.649902,499.374969 236.464005,499.678528 
	C235.176727,488.852112 235.369598,488.184296 240.019775,488.105164 
	C240.019775,491.375519 240.019775,494.651581 239.958801,498.363586 
z"/>
<path fill="#ECECEC" opacity="1.000000" stroke="none" 
	d="
M439.140656,498.315369 
	C439.071747,495.562714 438.794220,493.198853 439.169312,490.943512 
	C439.387665,489.630524 440.651855,488.491425 441.445496,487.274109 
	C441.915039,487.506226 442.384583,487.738373 442.854126,487.970490 
	C442.854126,491.679779 442.854126,495.389069 442.854126,499.769745 
	C441.458923,499.379669 440.332458,499.064697 439.140656,498.315369 
z"/>
<path fill="#E1E1E1" opacity="1.000000" stroke="none" 
	d="
M477.733856,499.609070 
	C480.918304,499.326721 483.755585,499.048889 486.526642,499.360352 
	C487.597260,499.480682 488.517639,500.937622 489.506470,501.785583 
	C489.227386,502.208221 488.948303,502.630859 488.669189,503.053497 
	C485.550140,503.053497 482.407349,503.260284 479.328766,502.907074 
	C478.565704,502.819550 478.010834,500.917053 477.733856,499.609070 
z"/>
<path fill="#E1E1E1" opacity="1.000000" stroke="none" 
	d="
M452.752380,499.237061 
	C454.562317,499.931793 455.926697,500.626404 457.291077,501.321045 
	C457.066010,501.824921 456.840942,502.328796 456.615875,502.832672 
	C452.870331,502.832672 449.124756,502.832672 444.928894,502.832672 
	C445.317322,496.897400 449.894623,500.205627 452.752380,499.237061 
z"/>
<path fill="#FAFAFA" opacity="1.000000" stroke="none" 
	d="
M514.534790,527.310547 
	C513.667542,526.329041 513.239929,525.366150 512.670227,524.083252 
	C517.174744,524.083252 520.885925,524.083252 524.624939,524.083252 
	C524.182312,527.341248 524.182312,527.341248 514.534790,527.310547 
z"/>
<path fill="#E5E5E5" opacity="1.000000" stroke="none" 
	d="
M346.283691,526.718506 
	C348.436584,528.564026 350.333649,530.151672 352.329315,531.821838 
	C351.001556,533.311768 350.276215,534.125671 349.517334,534.977173 
	C346.978729,532.259033 344.549744,529.658264 341.884705,526.804749 
	C342.610931,525.404724 343.758057,523.714233 346.283691,526.718506 
z"/>
<path fill="#F8F8F8" opacity="1.000000" stroke="none" 
	d="
M509.775024,493.654297 
	C513.206421,492.591003 516.645020,491.923523 521.110718,491.056641 
	C520.498718,493.232544 520.194458,494.985321 519.980652,494.974304 
	C516.574341,494.799530 513.179565,494.399078 509.775024,493.654297 
z"/>
<path fill="#E1E1E1" opacity="1.000000" stroke="none" 
	d="
M329.199463,517.193970 
	C332.208466,516.548279 335.119415,516.106812 337.999451,516.257385 
	C338.935150,516.306274 339.789886,517.903381 340.681671,518.792358 
	C340.444794,519.194641 340.207947,519.596863 339.971069,519.999146 
	C337.056030,519.999146 334.125488,520.163269 331.236206,519.890564 
	C330.456360,519.816956 329.801575,518.418579 329.199463,517.193970 
z"/>
<path fill="#FAFAFA" opacity="1.000000" stroke="none" 
	d="
M338.515900,527.309448 
	C335.924774,527.328918 333.743103,527.550171 331.641510,527.235962 
	C330.588623,527.078674 329.681671,525.945312 328.708710,525.253296 
	C328.927185,524.779968 329.145630,524.306580 329.364075,523.833191 
	C332.139679,523.833191 334.916718,523.777649 337.690552,523.847839 
	C340.866089,523.928101 341.058472,525.212952 338.515900,527.309448 
z"/>
<path fill="#DFDFDF" opacity="1.000000" stroke="none" 
	d="
M524.420471,493.055634 
	C523.740540,490.490967 522.936890,487.945007 522.542969,485.337128 
	C522.495667,485.024078 524.671753,484.375244 525.817383,483.882050 
	C526.304321,484.223328 526.791260,484.564606 527.278198,484.905914 
	C526.413513,487.350250 525.548828,489.794586 524.594055,492.680420 
	C524.503967,493.121948 524.420471,493.055634 524.420471,493.055634 
z"/>
<path fill="#FBFBFB" opacity="1.000000" stroke="none" 
	d="
M524.095825,493.193512 
	C524.420471,493.055634 524.503967,493.121948 524.547485,493.091187 
	C527.106934,495.379364 529.622803,497.698273 532.752075,500.582489 
	C531.574890,501.592041 530.658264,502.378174 529.318787,503.526886 
	C527.190735,501.204620 525.111694,499.284729 523.528809,497.018402 
	C522.978271,496.230286 523.654907,494.585114 524.095825,493.193512 
z"/>
<path fill="#ECECEC" opacity="1.000000" stroke="none" 
	d="
M341.952698,520.946899 
	C342.048889,518.230042 341.134888,515.099365 345.716858,516.506165 
	C345.716858,518.785583 345.716858,521.135986 345.716858,523.486328 
	C345.378174,523.801880 345.039490,524.117371 344.700806,524.432922 
	C343.784851,523.421875 342.868866,522.410828 341.952698,520.946899 
z"/>
<path fill="#020202" opacity="1.000000" stroke="none" 
	d="
M154.930817,439.978088 
	C154.930817,434.186035 154.930817,428.891785 154.930817,423.254272 
	C159.724121,422.709503 164.727814,422.068634 167.717117,426.320251 
	C171.614700,431.863678 171.184998,438.447723 168.685013,444.408112 
	C166.281235,450.139038 160.611618,449.160980 154.930817,449.194794 
	C154.930817,446.261139 154.930817,443.368561 154.930817,439.978088 
z"/>
<path fill="#020202" opacity="1.000000" stroke="none" 
	d="
M165.928406,408.097687 
	C162.281387,409.073212 158.963089,409.810944 155.212631,410.644745 
	C155.212631,402.666077 155.212631,395.470428 155.212631,388.048004 
	C160.183990,387.643127 165.314209,387.403137 167.804169,392.517792 
	C170.297318,397.639069 170.180145,403.090942 165.928406,408.097687 
z"/>
<path fill="#030303" opacity="1.000000" stroke="none" 
	d="
M332.334625,388.013306 
	C338.900024,390.658478 340.950958,396.136932 339.033691,404.802063 
	C337.685822,410.893829 334.366364,412.495514 323.728607,411.839142 
	C323.728607,407.991516 323.728577,404.080109 323.728577,400.168701 
	C323.728577,396.222687 323.728607,392.276703 323.728607,387.969574 
	C326.690369,387.969574 329.297333,387.969574 332.334625,388.013306 
z"/>
<path fill="#111111" opacity="1.000000" stroke="none" 
	d="
M396.819458,424.096863 
	C397.164886,426.992859 397.448578,429.454132 397.780212,432.331268 
	C394.849457,432.331268 392.023285,432.331268 388.728302,432.331268 
	C390.008423,422.173615 391.271729,412.149628 392.535004,402.125641 
	C392.897034,402.095276 393.259033,402.064941 393.621063,402.034607 
	C394.666626,409.243774 395.712189,416.452942 396.819458,424.096863 
z"/>
<path fill="#111111" opacity="1.000000" stroke="none" 
	d="
M98.191048,432.739929 
	C95.132729,433.117035 94.345375,432.163635 94.759346,429.406097 
	C96.112801,420.390411 97.210609,411.336304 99.444283,402.181000 
	C100.819885,412.093140 102.195480,422.005249 103.685242,432.739960 
	C101.713402,432.739960 100.154648,432.739960 98.191048,432.739929 
z"/>
</svg>