<svg version="1.1" id="Layer_1" xmlns="http://www.w3.org/2000/svg" xmlns:xlink="http://www.w3.org/1999/xlink" x="0px" y="0px"
	 width="100%" viewBox="0 0 591 1004" enable-background="new 0 0 591 1004" xml:space="preserve">
<path fill="#000000" opacity="1.000000" stroke="none" 
	d="
M1.000000,379.000000 
	C1.000000,252.666672 1.000000,126.833336 1.000000,1.000000 
	C198.000000,1.000000 395.000000,1.000000 592.000000,1.000000 
	C592.000000,335.666656 592.000000,670.333313 592.000000,1005.000000 
	C395.000000,1005.000000 198.000000,1005.000000 1.000000,1005.000000 
	C1.000000,796.500000 1.000000,588.000000 1.000000,379.000000 
M524.684143,492.238922 
	C525.548889,489.794617 526.413574,487.350281 527.278320,484.905975 
	C526.791321,484.564667 526.304321,484.223358 525.817322,483.882050 
	C524.671753,484.375275 522.495667,485.024170 522.542908,485.337219 
	C522.936829,487.945038 523.740479,490.491028 523.771179,493.331421 
	C523.654907,494.585144 522.978210,496.230316 523.528625,497.018433 
	C525.111511,499.284821 527.190552,501.204712 529.318787,503.527252 
	C530.658325,502.378265 531.574951,501.592072 532.752075,500.582397 
	C529.622864,497.698242 527.106934,495.379333 524.684143,492.238922 
M60.185059,240.501450 
	C60.218498,240.708694 60.251938,240.915939 60.136021,242.033813 
	C60.136021,271.408325 60.136021,300.782806 60.136021,330.158875 
	C87.512131,330.158875 114.212257,330.158875 141.247162,330.158875 
	C141.247162,325.334412 141.259430,320.857910 141.245132,316.381439 
	C141.164825,291.255463 141.078125,266.129486 141.127594,240.499969 
	C141.082916,240.332123 141.038254,240.164276 141.213577,239.081848 
	C141.213577,209.653778 141.213577,180.225708 141.213577,150.705093 
	C113.927269,150.705093 87.187477,150.705093 60.286297,150.705093 
	C60.286297,180.641144 60.286297,210.260513 60.185059,240.501450 
M532.346497,149.135727 
	C532.346497,119.558113 532.346497,89.980499 532.346497,60.223957 
	C505.193115,60.223957 478.466461,60.223957 451.476746,60.223957 
	C451.390198,61.214603 451.260681,62.007595 451.260376,62.800632 
	C451.249817,90.770088 451.243774,118.739548 451.279327,146.708969 
	C451.280731,147.811310 451.694977,148.913116 451.489716,150.859955 
	C451.409302,151.517990 451.258881,152.175995 451.258575,152.834061 
	C451.245728,180.814545 451.244080,208.795013 451.254028,236.775497 
	C451.254395,237.736130 451.387451,238.696732 451.474945,239.877335 
	C478.479401,239.877335 505.222351,239.877335 532.422241,239.877335 
	C532.422241,237.940186 532.422241,236.137619 532.422241,234.335068 
	C532.422302,213.183167 532.449219,192.031189 532.406494,170.879379 
	C532.393066,164.235748 532.192383,157.592468 532.235474,150.496567 
	C532.235474,150.496567 532.074219,150.045242 532.346497,149.135727 
M306.501526,161.549591 
	C306.501526,157.945679 306.501526,154.341751 306.501526,150.759491 
	C279.082703,150.759491 252.359192,150.759491 225.637131,150.759491 
	C225.637131,180.709442 225.637131,210.277771 225.637131,239.784149 
	C252.705063,239.784149 279.436371,239.784149 306.501373,239.784149 
	C306.501373,213.812012 306.501373,188.174225 306.501526,161.549591 
M159.504868,798.525574 
	C181.228134,798.525574 202.951416,798.525574 224.505936,798.525574 
	C224.505936,768.066528 224.505936,738.379211 224.505936,708.774780 
	C197.441391,708.774780 170.763809,708.774780 144.205658,708.774780 
	C144.205658,738.857056 144.205658,768.539490 144.205658,798.525452 
	C149.224319,798.525452 153.865891,798.525452 159.504868,798.525574 
M151.537109,60.001064 
	C148.438110,60.001064 145.339111,60.001064 142.309296,60.001064 
	C142.309296,90.374496 142.309296,120.086311 142.309296,149.761169 
	C169.335037,149.761169 196.036392,149.761169 222.705429,149.761169 
	C222.705429,119.707344 222.705429,90.002701 222.705429,60.001064 
	C199.094223,60.001064 175.809799,60.001064 151.537109,60.001064 
M60.113518,811.512634 
	C60.113518,837.221069 60.113518,862.929504 60.113518,888.614258 
	C87.512535,888.614258 114.096169,888.614258 140.964722,888.614258 
	C140.964722,858.704590 140.964722,829.014160 140.964722,799.211304 
	C113.998497,799.211304 87.176834,799.211304 60.113525,799.211304 
	C60.113525,803.233337 60.113525,806.876465 60.113518,811.512634 
M532.397888,676.472229 
	C532.397888,649.070740 532.397888,621.669189 532.397888,594.283508 
	C505.034882,594.283508 478.312775,594.283508 451.576324,594.283508 
	C451.576324,624.322205 451.576324,654.041809 451.576324,683.715881 
	C478.664520,683.715881 505.422546,683.715881 532.397949,683.715881 
	C532.397949,681.443420 532.397949,679.455200 532.397888,676.472229 
M368.500000,240.117935 
	C375.939148,240.117935 383.378265,240.117935 391.001221,240.117935 
	C391.001221,210.051529 391.001221,180.490692 391.001221,150.761124 
	C363.959991,150.761124 337.120880,150.761124 310.354095,150.761124 
	C310.354095,180.699677 310.354095,210.258316 310.354095,240.117950 
	C329.596527,240.117950 348.548279,240.117950 368.500000,240.117935 
M135.161194,421.499939 
	C135.161194,435.254272 135.161194,449.008606 135.161194,462.904724 
	C146.081009,462.904724 156.402588,463.254028 166.690353,462.813721 
	C178.760605,462.297150 186.547394,455.853668 188.495056,444.641174 
	C190.706024,431.912933 188.808472,419.353424 175.374390,415.643250 
	C185.436111,409.872986 188.135544,403.625641 185.961807,391.140503 
	C184.461121,382.521149 178.599030,376.428955 168.352448,375.548920 
	C157.485626,374.615601 146.476501,375.339233 135.161194,375.339233 
	C135.161194,390.258606 135.161194,405.379242 135.161194,421.499939 
M329.026367,374.687256 
	C320.757172,374.687256 312.487976,374.687256 304.345673,374.687256 
	C304.345673,404.441559 304.345673,433.655884 304.345673,462.700012 
	C310.931183,462.700012 317.178955,462.700012 323.907043,462.700012 
	C323.907043,449.505920 323.907043,436.610931 323.907043,423.917572 
	C327.865082,422.726410 329.370453,423.956909 330.188904,427.595642 
	C332.844360,439.401733 335.913696,451.114716 338.779694,462.686005 
	C345.715759,462.686005 352.248199,462.686005 359.021881,462.686005 
	C354.968445,448.326843 351.016693,434.327850 347.348663,421.333984 
	C350.349243,418.000824 353.582672,415.708801 354.994843,412.591675 
	C358.918671,403.930481 359.431183,394.672058 355.271851,386.036499 
	C353.636688,382.641571 349.942627,379.348114 346.418274,377.964600 
	C341.292725,375.952515 335.472290,375.710602 329.026367,374.687256 
M473.894775,458.405487 
	C481.221222,450.360504 480.756561,440.557495 480.657776,430.650452 
	C473.940796,430.650452 467.747101,430.650452 461.115051,430.650452 
	C461.115051,435.209198 461.224670,439.365601 461.081818,443.513245 
	C460.958282,447.098602 459.990021,450.139191 455.482361,450.279724 
	C451.032593,450.418396 448.891205,447.988098 448.859589,443.925629 
	C448.730072,427.277740 448.737457,410.628082 448.828522,393.979767 
	C448.850464,389.965851 450.856262,387.260834 455.231415,387.298615 
	C459.819519,387.338196 461.075073,390.435181 461.133667,394.340790 
	C461.194916,398.421692 461.147369,402.504181 461.147369,406.411621 
	C468.228973,406.411621 474.311554,406.411621 481.008270,406.411621 
	C480.602386,400.898804 480.623077,395.717896 479.763245,390.687469 
	C478.185577,381.457123 472.279938,375.545807 463.365417,374.203156 
	C459.128021,373.564880 454.709229,373.404877 450.445282,373.804230 
	C437.427094,375.023438 429.995056,381.667908 429.288330,394.728821 
	C428.425903,410.667572 428.678223,426.701294 429.232513,442.666718 
	C429.491547,450.128326 432.414520,457.492126 439.747833,460.856201 
	C451.067535,466.048981 462.567230,466.412506 473.894775,458.405487 
M377.391724,463.005707 
	C379.528687,463.005707 381.665680,463.005707 383.713318,463.005707 
	C384.849854,456.540436 385.906525,450.529449 386.955902,444.559937 
	C391.487671,444.559937 395.438263,444.559937 399.673798,444.559937 
	C400.700195,450.700775 401.705994,456.718353 402.699402,462.661743 
	C408.896088,462.661743 414.753204,462.661743 420.751190,462.661743 
	C415.223877,433.103790 409.763947,403.906281 404.327576,374.834656 
	C396.527832,374.834656 389.409027,374.834656 381.919006,374.834656 
	C376.373322,404.147522 370.845337,433.366791 365.237946,463.005707 
	C369.142242,463.005707 372.788177,463.005707 377.391724,463.005707 
M104.287369,444.430420 
	C104.880623,445.678894 105.763908,446.871887 106.015266,448.185760 
	C106.941803,453.028748 107.659119,457.911743 108.458855,462.802551 
	C114.612099,462.802551 120.391022,462.802551 126.517227,462.802551 
	C120.990685,433.228119 115.512901,403.914673 110.092316,374.907288 
	C102.167442,374.907288 95.052002,374.907288 87.650406,374.907288 
	C82.100716,404.251465 76.584892,433.416565 71.047722,462.694519 
	C77.422379,462.694519 83.502892,462.694519 89.566628,462.694519 
	C90.045609,459.943237 90.523979,457.502869 90.888985,455.045624 
	C92.475136,444.367615 92.463127,444.365845 104.287369,444.430420 
M200.119812,384.844604 
	C195.192795,397.121185 197.398392,407.980011 206.946762,417.194183 
	C211.133881,421.234741 215.673965,424.906982 219.969757,428.838257 
	C223.885239,432.421509 226.757797,436.647125 226.876923,442.183105 
	C226.941925,445.204163 226.968704,448.515778 222.960632,449.174530 
	C219.254227,449.783691 216.810135,447.829712 215.876694,444.374603 
	C214.979218,441.052582 214.535370,437.607971 213.814774,433.809082 
	C208.461899,434.627350 203.132050,435.442078 197.525177,436.299164 
	C197.816208,439.373688 197.851730,442.043427 198.348297,444.624481 
	C201.691452,462.001312 220.507568,470.257416 235.737488,461.008148 
	C242.142914,457.118134 245.528137,451.306000 246.079910,443.785706 
	C246.877792,432.911316 242.194763,424.493195 234.489334,417.386078 
	C229.965240,413.213226 225.346390,409.140717 220.894333,404.892914 
	C217.554077,401.705872 215.843826,397.565216 217.058624,393.136749 
	C217.615280,391.107483 220.005203,388.739990 221.985168,388.258331 
	C223.169510,387.970245 225.803528,390.756409 226.638901,392.663239 
	C227.640045,394.948456 227.419128,397.769073 227.761292,400.642090 
	C233.543488,399.911987 238.887268,399.237274 244.451462,398.534698 
	C243.670319,389.583832 242.677200,381.142365 234.682999,376.204163 
	C224.277176,369.776245 207.407654,373.943756 200.119812,384.844604 
M283.157013,427.500061 
	C283.157013,414.763611 283.157013,402.027191 283.157013,388.876953 
	C288.030365,388.876953 292.102722,388.876953 296.007355,388.876953 
	C296.007355,383.882080 296.007355,379.331909 296.007355,374.960266 
	C280.509460,374.960266 265.413055,374.960266 250.439606,374.960266 
	C250.439606,379.842499 250.439606,384.419434 250.439606,389.359680 
	C254.893280,389.359680 259.003784,389.359680 263.463684,389.359680 
	C263.463684,414.005005 263.463684,438.274536 263.463684,462.715637 
	C270.207672,462.715637 276.588226,462.715637 283.157013,462.715637 
	C283.157013,451.116394 283.157013,439.808258 283.157013,427.500061 
M519.466797,374.668243 
	C508.342010,374.668243 497.217194,374.668243 485.988861,374.668243 
	C485.988861,379.702667 485.988861,384.272491 485.988861,389.202515 
	C490.351807,389.202515 494.451904,389.202515 499.015442,389.202515 
	C499.015442,413.946625 499.015442,438.330750 499.015442,462.633972 
	C505.882141,462.633972 512.259094,462.633972 518.997864,462.633972 
	C518.997864,438.017578 518.997864,413.769836 518.997864,389.088196 
	C523.440308,389.088196 527.525757,389.088196 531.948364,389.088196 
	C531.948364,386.357269 531.948364,384.060089 531.948364,381.762878 
	C531.948364,379.501862 531.948364,377.240814 531.948364,374.668304 
	C527.751404,374.668304 524.102112,374.668304 519.466797,374.668243 
M266.640198,498.068176 
	C264.216797,492.055542 258.063843,487.546478 253.964691,488.779205 
	C252.629059,484.264679 252.629059,484.264679 249.207581,484.820648 
	C249.207581,490.729675 249.207581,496.658875 249.207581,502.785889 
	C250.570724,502.785889 251.777451,502.785889 252.975800,502.785889 
	C253.161163,498.710480 253.335037,494.888123 253.579071,489.522919 
	C257.262299,493.116974 259.687927,495.730194 262.407349,497.989807 
	C263.240784,498.682312 264.879547,498.405670 266.640198,498.068176 
M530.706543,530.247070 
	C530.706238,526.589478 530.617371,522.929077 530.732483,519.275146 
	C530.831543,516.131409 529.474365,515.502197 526.703003,516.609680 
	C526.703003,522.706299 526.703003,528.755493 526.703003,534.669678 
	C530.624329,536.007385 530.903748,533.834045 530.706543,530.247070 
M269.674774,484.161255 
	C269.247620,484.956390 268.467255,485.744171 268.450500,486.547821 
	C268.339844,491.857971 268.393311,497.171539 268.393311,502.765961 
	C269.905609,502.765961 271.120361,502.765961 272.700867,502.765961 
	C272.700867,497.276581 272.798706,491.966614 272.603394,486.667450 
	C272.571320,485.796692 271.251038,484.973419 269.674774,484.161255 
M285.833405,501.052673 
	C285.834625,496.405823 285.767334,491.757599 285.860291,487.112579 
	C285.926544,483.802002 284.362976,483.642853 281.792480,484.687134 
	C281.792480,490.764923 281.792480,496.713837 281.792480,503.403290 
	C283.361176,502.836212 284.577393,502.396576 285.833405,501.052673 
M472.307953,516.109436 
	C471.263824,516.956726 469.365295,517.757507 469.316254,518.658936 
	C469.029480,523.930603 469.175568,529.225708 469.175568,534.797974 
	C470.732605,534.797974 471.964203,534.797974 473.098419,534.797974 
	C473.098419,528.618713 473.098419,522.538513 472.307953,516.109436 
M326.328339,535.067566 
	C326.930023,528.885498 327.531738,522.703430 328.136780,516.486816 
	C323.351501,516.309875 323.255646,516.307861 323.193634,519.300415 
	C323.104309,523.609619 323.033600,527.929749 323.273956,532.227417 
	C323.329468,533.219604 324.677551,534.139526 326.328339,535.067566 
M266.606873,533.020874 
	C266.606873,527.457764 266.606873,521.894714 266.606873,516.331604 
	C266.062225,516.055359 265.517548,515.779114 264.972900,515.502808 
	C264.041046,516.511719 262.356720,517.482727 262.303711,518.535889 
	C262.031006,523.951660 262.177338,529.388489 262.177338,535.666077 
	C264.132751,534.886658 265.341217,534.404907 266.606873,533.020874 
M346.837555,488.795166 
	C346.748627,486.304352 347.619385,482.926178 342.920837,484.563538 
	C342.920837,490.687256 342.920837,496.737701 342.920837,502.788116 
	C343.358612,503.056396 343.796387,503.324677 344.234161,503.592957 
	C345.101776,502.453735 346.597778,501.376587 346.717590,500.163513 
	C347.058228,496.714203 346.837372,493.209473 346.837555,488.795166 
M493.400452,520.004883 
	C495.525970,520.004883 497.651489,520.004883 499.777039,520.004883 
	C500.027374,519.485413 500.277740,518.965942 500.528107,518.446411 
	C499.446686,517.671631 498.398315,516.289062 497.278046,516.228027 
	C492.630768,515.975098 487.951965,515.958435 483.307831,516.238159 
	C482.179840,516.306152 481.139679,517.832275 480.059113,518.687927 
	C480.376556,519.126892 480.694031,519.565918 481.011475,520.004883 
	C484.817749,520.004883 488.624023,520.004883 493.400452,520.004883 
M475.612579,486.105316 
	C474.514496,485.280396 473.416412,484.455444 471.160278,482.760529 
	C471.160278,488.711548 471.006073,492.835205 471.273529,496.931335 
	C471.336884,497.902161 472.814941,498.780640 473.642242,499.701569 
	C474.304352,498.781891 475.468140,497.898285 475.537415,496.935944 
	C475.774902,493.636963 475.628540,490.310333 475.612579,486.105316 
M408.534637,521.708801 
	C408.498352,516.226807 408.498352,516.226807 404.238739,516.732666 
	C404.238739,520.961365 404.139893,525.252441 404.334290,529.530151 
	C404.367371,530.258240 405.644073,531.457092 406.370575,531.475525 
	C407.072144,531.493347 408.334076,530.330566 408.425476,529.574585 
	C408.702393,527.284973 408.531158,524.941223 408.534637,521.708801 
M381.348846,484.131683 
	C378.195404,484.131958 375.018402,483.911926 371.900696,484.245636 
	C370.724335,484.371521 369.685089,485.778259 368.583313,486.601105 
	C368.860138,486.983093 369.136932,487.365051 369.413757,487.747009 
	C375.641754,487.747009 381.869781,487.747009 388.274597,487.747009 
	C388.792572,481.833893 384.372406,484.997314 381.348846,484.131683 
M310.114807,522.590149 
	C310.114960,524.575562 310.203033,526.565796 310.095490,528.545349 
	C309.917603,531.820312 311.480560,532.103027 313.969818,531.155701 
	C313.969818,526.098938 313.969818,521.239868 313.969818,516.329834 
	C308.375610,515.422668 310.664337,519.493958 310.114807,522.590149 
M494.423218,484.418335 
	C493.314484,484.418335 492.205750,484.418335 491.057007,484.418335 
	C491.057007,489.490570 491.057007,494.382874 491.057007,499.275146 
	C491.509277,499.542145 491.961517,499.809113 492.413788,500.076111 
	C493.249115,498.920898 494.711792,497.813049 494.803192,496.601746 
	C495.088501,492.820129 494.855377,488.999390 494.423218,484.418335 
M427.920227,528.041992 
	C427.919983,525.063416 427.834930,522.081787 427.942200,519.107056 
	C428.061493,515.799133 426.481537,515.632141 423.953339,516.645508 
	C423.953339,521.547546 423.953339,526.310669 423.953339,531.073792 
	C424.321472,531.389526 424.689606,531.705261 425.057709,532.020996 
	C426.011688,530.986572 426.965637,529.952148 427.920227,528.041992 
M314.072632,494.485443 
	C314.072632,502.802460 314.072632,502.802460 317.893127,502.576630 
	C317.893127,496.549133 317.893127,490.519440 317.893127,484.489777 
	C317.466187,484.224426 317.039215,483.959076 316.612274,483.693726 
	C315.766022,484.823639 314.429993,485.857056 314.184021,487.105255 
	C313.777100,489.169891 314.072937,491.373016 314.072632,494.485443 
M192.003311,485.007538 
	C189.583801,483.405975 188.071823,483.639282 188.073166,486.947144 
	C188.074982,491.406738 188.140030,495.867615 188.053024,500.325531 
	C187.980301,504.051147 189.975937,503.154816 192.138733,502.544800 
	C192.138733,496.815674 192.138733,491.369507 192.003311,485.007538 
M301.014038,498.346436 
	C301.014038,499.791992 301.014038,501.237549 301.014038,503.016632 
	C302.627075,502.870422 303.788910,502.765106 304.797607,502.673676 
	C304.797607,496.355164 304.797607,490.458649 304.797607,484.562134 
	C304.385101,484.295593 303.972595,484.029053 303.560089,483.762512 
	C302.711884,484.839111 301.241058,485.856720 301.132324,487.003418 
	C300.806976,490.434784 301.014618,493.916687 301.014038,498.346436 
M362.968231,526.481934 
	C362.967987,524.008240 362.890564,521.531494 362.986328,519.061523 
	C363.116760,515.697266 361.496704,515.698975 359.116608,516.676392 
	C359.116608,522.813599 359.116608,528.710022 359.116608,534.661987 
	C361.848328,535.515686 363.344910,535.074707 362.995514,531.898804 
	C362.834137,530.432312 362.968140,528.933411 362.968231,526.481934 
M429.433350,502.940308 
	C429.433350,496.771515 429.433350,490.602722 429.433350,484.433929 
	C427.709961,484.643616 426.191040,485.617249 426.132660,486.671692 
	C425.868652,491.441467 425.917542,496.238495 426.127808,501.013641 
	C426.158539,501.711609 427.666595,502.344543 429.433350,502.940308 
M507.968231,488.743774 
	C507.825134,484.340424 507.825134,484.340424 504.205414,484.760590 
	C504.205414,490.791870 504.205414,496.825775 504.205414,502.859711 
	C504.648651,503.102081 505.091858,503.344452 505.535095,503.586792 
	C506.346008,502.420319 507.741028,501.308441 507.856201,500.076874 
	C508.177368,496.642242 507.968079,493.157959 507.968231,488.743774 
M445.486389,531.236938 
	C443.504425,531.237915 441.446136,530.916077 439.568970,531.360168 
	C438.430969,531.629272 437.573212,533.083435 435.713165,534.826477 
	C443.147766,534.826477 448.713562,534.826477 454.279388,534.826477 
	C454.551819,534.419861 454.824280,534.013184 455.096741,533.606567 
	C454.027344,532.817139 453.053101,531.606079 451.866028,531.338379 
	C450.137085,530.948425 448.255005,531.237488 445.486389,531.236938 
M376.685608,493.965088 
	C376.685608,496.896301 376.685608,499.827515 376.685608,502.834534 
	C378.253265,502.834534 379.355743,502.834534 380.549835,502.834534 
	C380.549835,498.428131 380.549835,494.220093 380.549835,490.124481 
	C377.219269,488.922913 376.350830,490.330505 376.685608,493.965088 
M290.931549,525.381592 
	C290.931549,527.313965 290.931549,529.246399 290.931549,531.162720 
	C295.284393,531.247681 295.236664,531.248596 295.014679,519.839844 
	C294.962708,517.170349 294.789948,515.135742 290.931549,516.762390 
	C290.931549,519.232239 290.931549,521.835693 290.931549,525.381592 
M391.377777,522.254395 
	C391.377319,524.237915 391.103302,526.274475 391.474182,528.185913 
	C391.714752,529.425476 392.896790,530.482361 393.657013,531.621094 
	C394.342468,530.570679 395.502625,529.570190 395.619507,528.459900 
	C395.906677,525.732544 395.713440,522.954712 395.713440,518.947998 
	C393.679810,520.123474 392.532654,520.786560 391.377777,522.254395 
M458.290039,496.151184 
	C458.077026,498.800140 460.193573,501.343231 461.546967,499.208374 
	C463.351074,496.362579 462.680817,491.948181 463.120575,487.757629 
	C460.963196,487.918335 459.733246,488.009949 458.290314,488.117432 
	C458.290314,490.715485 458.290314,493.004456 458.290039,496.151184 
M299.185974,496.770081 
	C296.100128,493.613037 293.014252,490.455994 289.731720,487.097748 
	C288.658813,488.264526 287.845093,489.149445 286.622375,490.479156 
	C289.501892,493.156525 292.320160,495.458374 294.740631,498.121765 
	C296.936035,500.537659 298.220276,499.737671 299.185974,496.770081 
M412.378784,493.529510 
	C415.341431,497.615662 419.541595,494.326874 423.061646,495.189484 
	C423.283844,495.243927 423.975800,493.381287 424.709991,491.875854 
	C420.389526,491.875854 416.963135,491.848816 413.538544,491.914337 
	C413.163818,491.921509 412.799316,492.461151 412.378784,493.529510 
M442.790558,524.789795 
	C442.789551,525.280945 442.752380,526.199036 442.792633,526.202515 
	C446.515656,526.517761 450.243683,526.785339 453.976227,526.936401 
	C454.134766,526.942810 454.672485,525.570801 454.453644,525.285217 
	C453.964935,524.647278 453.116547,523.899658 452.402191,523.886719 
	C449.309387,523.830627 446.212036,524.022644 442.790558,524.789795 
M217.764893,487.873566 
	C217.248566,491.610535 216.732239,495.347473 216.215897,499.084442 
	C216.683304,499.381165 217.150711,499.677917 217.618103,499.974670 
	C218.690979,499.233307 220.791687,498.162933 220.676163,497.801971 
	C219.632584,494.541656 223.590164,490.216278 217.764893,487.873566 
M407.123932,495.076782 
	C414.525024,495.724823 409.769531,490.155884 410.684814,487.638977 
	C411.677246,484.909912 410.139130,483.309326 406.689941,484.669006 
	C406.689941,487.880829 406.689941,491.143585 407.123932,495.076782 
M445.135864,519.995361 
	C448.740234,519.995361 452.344604,519.995361 455.933746,519.995361 
	C455.959167,515.709595 453.217529,515.080994 442.257629,516.779663 
	C443.049591,518.031494 443.669098,519.010742 445.135864,519.995361 
M416.572632,499.250854 
	C411.015991,499.257324 411.015991,499.257324 411.007324,502.760986 
	C415.372070,502.760986 419.731232,502.760986 424.439667,502.760986 
	C423.933441,497.175201 419.822510,500.013550 416.572632,499.250854 
M459.187134,535.010010 
	C459.703308,531.470459 460.219482,527.930969 460.779816,524.088867 
	C458.778961,524.088867 457.575684,524.088867 456.139191,524.088867 
	C456.139191,527.145020 455.972504,529.936462 456.239227,532.685791 
	C456.320862,533.527100 457.591919,534.252930 459.187134,535.010010 
M333.578339,487.400726 
	C334.348145,484.558411 332.737823,483.505615 330.454468,484.210144 
	C326.999603,485.276123 322.353363,481.129578 320.000458,486.591858 
	C319.872498,486.888916 320.272614,487.413483 320.445496,487.882538 
	C324.663971,487.882538 328.752441,487.882538 333.578339,487.400726 
M269.969147,516.125977 
	C269.214264,517.122131 268.459351,518.118286 267.222961,519.749756 
	C272.965179,519.749756 277.350769,519.749756 281.736359,519.749756 
	C281.988251,519.319336 282.240143,518.888916 282.492035,518.458435 
	C281.423492,517.677856 280.419067,516.359985 279.273682,516.223450 
	C276.508972,515.893616 273.678436,516.115723 269.969147,516.125977 
M202.333191,488.004913 
	C204.089600,488.004913 205.846008,488.004913 207.602402,488.004913 
	C207.715271,487.352753 207.828125,486.700623 207.940994,486.048462 
	C204.987915,482.004181 200.069366,484.943451 196.209167,484.276581 
	C195.475662,484.149841 194.400909,485.998260 193.483612,486.935394 
	C193.815247,487.291901 194.146896,487.648407 194.478531,488.004913 
	C196.789383,488.004913 199.100235,488.004913 202.333191,488.004913 
M362.089020,500.713135 
	C357.893677,500.261383 353.703094,499.721649 349.495667,499.495270 
	C349.078430,499.472839 348.558228,501.364105 347.389038,503.846802 
	C353.245758,502.967041 357.672882,502.302032 362.089020,500.713135 
M524.772644,534.533569 
	C524.192322,533.442261 523.693115,531.470093 523.018005,531.407959 
	C519.595276,531.092773 516.109619,531.094299 512.688354,531.424072 
	C511.962097,531.494080 511.412262,533.395020 510.479340,534.958069 
	C515.781189,534.958069 519.879395,534.958069 524.772644,534.533569 
M358.343048,488.004913 
	C361.882568,487.700348 361.882568,487.700348 361.530823,484.464996 
	C349.663971,483.293701 348.467804,483.605194 349.029388,488.004913 
	C351.797974,488.004913 354.604156,488.004913 358.343048,488.004913 
M268.087036,532.721985 
	C268.627899,533.493713 269.137939,534.906494 269.714539,534.934143 
	C273.759888,535.128540 277.819000,535.037170 281.873688,535.037170 
	C282.087128,534.573975 282.300598,534.110779 282.514038,533.647583 
	C281.527649,532.844116 280.557068,531.379150 279.552002,531.355164 
	C275.823700,531.265991 272.084015,531.651367 268.087036,532.721985 
M206.773285,499.391968 
	C203.445267,499.340637 200.098587,499.073090 196.799545,499.357574 
	C195.674698,499.454590 194.669540,500.939453 193.609711,501.790192 
	C193.892899,502.211548 194.176102,502.632904 194.459305,503.054260 
	C198.106522,503.054260 201.755310,502.989075 205.400421,503.076538 
	C207.945374,503.137604 208.137115,501.864105 206.773285,499.391968 
M330.103638,499.236725 
	C327.607635,499.237610 325.064392,498.956940 322.636597,499.364288 
	C321.510437,499.553253 320.608948,501.081024 318.706848,502.826660 
	C324.893646,502.826660 329.174011,502.826660 333.454407,502.826660 
	C333.710754,502.407135 333.967102,501.987579 334.223450,501.568054 
	C333.147400,500.791199 332.071381,500.014343 330.103638,499.236725 
M491.412750,521.807007 
	C489.407593,521.549805 487.817474,521.626892 488.051392,524.441101 
	C488.255341,526.894775 488.215637,529.386353 488.064819,531.847778 
	C487.846039,535.418091 489.510529,535.503662 492.032837,534.519348 
	C492.032837,530.284607 492.032837,526.335693 491.412750,521.807007 
M301.653564,535.061523 
	C303.910614,535.061523 306.167664,535.061523 308.424683,535.061523 
	C308.523041,534.449463 308.621399,533.837402 308.719757,533.225342 
	C305.769043,528.837402 300.932281,532.367615 297.262634,531.144531 
	C295.596039,535.955200 298.702820,534.923096 301.653564,535.061523 
M231.938583,503.061096 
	C232.772385,502.073853 233.606186,501.086609 235.063644,499.360962 
	C222.795486,499.047455 222.795486,499.047455 222.737000,503.061523 
	C225.516434,503.061523 228.295349,503.061523 231.938583,503.061096 
M234.126556,487.343414 
	C233.451736,480.301147 228.187973,485.665527 225.367218,484.273773 
	C224.734589,483.961609 223.112793,485.654205 221.946396,486.423859 
	C222.203430,486.926605 222.460449,487.429321 222.717484,487.932037 
	C226.325775,487.932037 229.934082,487.932037 234.126556,487.343414 
M509.555023,516.162537 
	C508.725159,517.037170 507.295441,517.839478 507.179657,518.800171 
	C506.852875,521.511536 507.065430,524.288025 507.065430,528.730591 
	C509.193298,527.032410 510.975311,526.283752 511.009216,525.462952 
	C511.135681,522.403992 510.688354,519.321228 509.555023,516.162537 
M240.028351,493.418152 
	C240.028351,491.640930 240.028351,489.863708 240.028351,487.408356 
	C238.279724,488.003784 236.225327,488.339844 236.206116,488.767426 
	C236.052048,492.195221 236.217834,495.646362 236.541977,499.066132 
	C236.563324,499.291351 238.691513,499.316864 240.028351,499.454742 
	C240.028351,497.304199 240.028351,495.817291 240.028351,493.418152 
M442.984131,498.835663 
	C442.984131,495.245392 442.984131,491.655090 442.984131,488.064819 
	C442.512390,487.815399 442.040619,487.565979 441.568878,487.316559 
	C440.734131,488.479584 439.448578,489.545105 439.170929,490.828613 
	C438.760101,492.727966 439.192261,494.792267 439.033783,496.767761 
	C438.817230,499.467316 440.247650,499.851135 442.984131,498.835663 
M450.504761,499.246826 
	C448.395142,499.811646 444.199646,497.605042 445.216187,502.724121 
	C449.368652,502.724121 453.080353,502.724121 456.797607,502.724121 
	C457.253845,497.477295 453.466064,499.833832 450.504761,499.246826 
M419.204681,531.238403 
	C416.270447,532.405151 411.487579,528.742981 409.571136,534.841125 
	C414.105591,534.841125 417.854706,534.841125 422.975281,534.841125 
	C421.673615,533.209290 420.890961,532.228149 419.204681,531.238403 
M383.504761,531.246887 
	C381.395111,531.811584 377.199768,529.605042 378.216187,534.724121 
	C382.370941,534.724121 386.081482,534.724121 389.829102,534.724121 
	C390.202789,529.564514 386.497894,531.779480 383.504761,531.246887 
M382.573486,516.119995 
	C378.119202,516.237244 378.119202,516.237244 378.557983,519.674438 
	C382.301514,519.674438 386.020844,519.674438 389.898773,519.674438 
	C389.933746,513.862549 385.701935,516.952637 382.573486,516.119995 
M511.210907,488.001587 
	C514.305786,488.001587 517.400635,488.001587 521.769226,488.001587 
	C518.594421,481.639099 513.674683,485.504028 509.496429,483.396362 
	C509.927948,485.589417 510.155518,486.745911 511.210907,488.001587 
M376.159546,524.471497 
	C376.094543,523.025879 376.029541,521.580261 375.937256,519.527954 
	C374.409973,520.011047 372.333130,520.319641 372.313049,520.729187 
	C372.145569,524.145508 372.280304,527.587585 372.601288,530.995789 
	C372.626526,531.263672 374.745544,531.334290 376.159546,531.534607 
	C376.159546,529.036926 376.159546,527.225403 376.159546,524.471497 
M437.064850,526.700989 
	C438.228241,526.938416 439.391632,527.175903 440.603394,527.423218 
	C441.675415,516.362427 441.519318,515.927612 436.940918,516.968506 
	C436.940918,519.904724 436.940918,522.876709 437.064850,526.700989 
M487.204834,503.053528 
	C487.810516,502.345612 488.714142,501.704742 488.894958,500.901215 
	C488.984192,500.504791 487.769684,499.372742 487.091339,499.324127 
	C484.460327,499.135590 481.773834,499.008728 479.181030,499.375336 
	C478.235107,499.509064 477.492859,501.083282 475.695282,503.057068 
	C480.382965,503.057068 483.333160,503.057068 487.204834,503.053528 
M445.910522,484.185699 
	C445.581207,485.354156 445.251923,486.522644 444.899231,487.774231 
	C449.331879,487.774231 452.931519,487.774231 456.531158,487.774231 
	C456.802124,487.366974 457.073120,486.959717 457.344116,486.552429 
	C456.323242,485.742645 455.380829,484.396271 454.265411,484.233185 
	C451.835388,483.877899 449.317230,484.125336 445.910522,484.185699 
M513.003418,525.228882 
	C515.662598,529.641052 519.873230,526.340942 523.266541,527.155029 
	C523.619934,527.239868 524.427795,525.430481 525.621948,523.569275 
	C520.535828,523.882935 516.835632,524.111145 513.003418,525.228882 
M347.582001,528.006836 
	C346.408020,526.922363 345.234009,525.837830 343.908112,524.613037 
	C342.920837,525.666138 342.157196,526.480713 341.405884,527.282104 
	C348.544037,535.851257 348.761810,535.955383 351.824524,531.609680 
	C350.637878,530.636414 349.363190,529.590881 347.582001,528.006836 
M514.659485,495.341064 
	C520.373352,495.333008 520.373352,495.333008 520.126709,492.116180 
	C516.720459,492.116180 513.314270,492.116180 509.908020,492.116180 
	C509.751251,492.667145 509.594452,493.218109 509.437683,493.769104 
	C510.905334,494.293060 512.373047,494.817047 514.659485,495.341064 
M332.726196,520.004822 
	C335.145996,520.004822 337.565796,520.004822 339.985626,520.004822 
	C340.231201,519.491272 340.476776,518.977783 340.722351,518.464233 
	C339.647797,517.683472 338.661652,516.459290 337.478424,516.223267 
	C335.584930,515.845581 333.540985,515.961243 331.600525,516.196960 
	C330.714081,516.304688 329.922699,517.195129 329.088196,517.730530 
	C329.996826,518.488464 330.905487,519.246399 332.726196,520.004822 
M329.290436,524.365845 
	C330.447113,530.743225 335.354034,525.848450 338.220734,527.188721 
	C338.488220,527.313782 339.645050,525.536621 340.975983,523.937195 
	C336.317291,523.937195 333.194519,523.937195 329.290436,524.365845 
M341.953583,518.712708 
	C341.953583,520.311584 341.953583,521.910400 341.953583,523.476257 
	C346.537994,523.841919 346.537994,523.841919 345.433472,515.568787 
	C344.059662,516.464661 343.011719,517.148071 341.953583,518.712708 
z"/>
<path fill="#B8B4FD" opacity="1.000000" stroke="none" 
	d="
M306.501465,162.043015 
	C306.501373,188.174225 306.501373,213.812012 306.501373,239.784149 
	C279.436371,239.784149 252.705063,239.784149 225.637131,239.784149 
	C225.637131,210.277771 225.637131,180.709442 225.637131,150.759491 
	C252.359192,150.759491 279.082703,150.759491 306.501526,150.759491 
	C306.501526,154.341751 306.501526,157.945679 306.501465,162.043015 
z"/>
<path fill="#B8B4FC" opacity="1.000000" stroke="none" 
	d="
M159.006165,798.525513 
	C153.865891,798.525452 149.224319,798.525452 144.205658,798.525452 
	C144.205658,768.539490 144.205658,738.857056 144.205658,708.774780 
	C170.763809,708.774780 197.441391,708.774780 224.505936,708.774780 
	C224.505936,738.379211 224.505936,768.066528 224.505936,798.525574 
	C202.951416,798.525574 181.228134,798.525574 159.006165,798.525513 
z"/>
<path fill="#B9B5FD" opacity="1.000000" stroke="none" 
	d="
M532.077393,150.949036 
	C532.192383,157.592468 532.393066,164.235748 532.406494,170.879379 
	C532.449219,192.031189 532.422302,213.183167 532.422241,234.335068 
	C532.422241,236.137619 532.422241,237.940186 532.422241,239.877335 
	C505.222351,239.877335 478.479401,239.877335 451.474945,239.877335 
	C451.387451,238.696732 451.254395,237.736130 451.254028,236.775497 
	C451.244080,208.795013 451.245728,180.814545 451.258575,152.834061 
	C451.258881,152.175995 451.409302,151.517990 451.817322,150.422333 
	C452.144958,149.984695 452.605011,149.954208 452.926147,150.282425 
	C454.227386,150.744827 455.207550,150.996109 456.187683,150.996109 
	C481.484253,150.996353 506.780823,150.970428 532.077393,150.949036 
z"/>
<path fill="#FF3131" opacity="1.000000" stroke="none" 
	d="
M152.031235,60.001064 
	C175.809799,60.001064 199.094223,60.001064 222.705429,60.001064 
	C222.705429,90.002701 222.705429,119.707344 222.705429,149.761169 
	C196.036392,149.761169 169.335037,149.761169 142.309296,149.761169 
	C142.309296,120.086311 142.309296,90.374496 142.309296,60.001064 
	C145.339111,60.001064 148.438110,60.001064 152.031235,60.001064 
z"/>
<path fill="#B9B5FE" opacity="1.000000" stroke="none" 
	d="
M60.113522,811.016113 
	C60.113525,806.876465 60.113525,803.233337 60.113525,799.211304 
	C87.176834,799.211304 113.998497,799.211304 140.964722,799.211304 
	C140.964722,829.014160 140.964722,858.704590 140.964722,888.614258 
	C114.096169,888.614258 87.512535,888.614258 60.113518,888.614258 
	C60.113518,862.929504 60.113518,837.221069 60.113522,811.016113 
z"/>
<path fill="#B9B5FE" opacity="1.000000" stroke="none" 
	d="
M532.397949,676.969604 
	C532.397949,679.455200 532.397949,681.443420 532.397949,683.715881 
	C505.422546,683.715881 478.664520,683.715881 451.576324,683.715881 
	C451.576324,654.041809 451.576324,624.322205 451.576324,594.283508 
	C478.312775,594.283508 505.034882,594.283508 532.397888,594.283508 
	C532.397888,621.669189 532.397888,649.070740 532.397949,676.969604 
z"/>
<path fill="#BAB6FF" opacity="1.000000" stroke="none" 
	d="
M452.605011,149.954193 
	C452.605011,149.954208 452.144958,149.984695 452.030914,149.999939 
	C451.694977,148.913116 451.280731,147.811310 451.279327,146.708969 
	C451.243774,118.739548 451.249817,90.770088 451.260376,62.800632 
	C451.260681,62.007595 451.390198,61.214603 451.476746,60.223957 
	C478.466461,60.223957 505.193115,60.223957 532.346497,60.223957 
	C532.346497,89.980499 532.346497,119.558113 531.737183,149.566559 
	C504.953583,149.983002 478.779297,149.968597 452.605011,149.954193 
z"/>
<path fill="#B9B5FD" opacity="1.000000" stroke="none" 
	d="
M368.000000,240.117950 
	C348.548279,240.117950 329.596527,240.117950 310.354095,240.117950 
	C310.354095,210.258316 310.354095,180.699677 310.354095,150.761124 
	C337.120880,150.761124 363.959991,150.761124 391.001221,150.761124 
	C391.001221,180.490692 391.001221,210.051529 391.001221,240.117935 
	C383.378265,240.117935 375.939148,240.117935 368.000000,240.117950 
z"/>
<path fill="#BAB6FF" opacity="1.000000" stroke="none" 
	d="
M140.993591,241.003525 
	C141.078125,266.129486 141.164825,291.255463 141.245132,316.381439 
	C141.259430,320.857910 141.247162,325.334412 141.247162,330.158875 
	C114.212257,330.158875 87.512131,330.158875 60.136021,330.158875 
	C60.136021,300.782806 60.136021,271.408325 60.660728,241.566650 
	C87.788155,241.067490 114.390869,241.035507 140.993591,241.003525 
z"/>
<path fill="#BAB6FF" opacity="1.000000" stroke="none" 
	d="
M60.286297,239.879883 
	C60.286297,210.260513 60.286297,180.641144 60.286297,150.705093 
	C87.187477,150.705093 113.927269,150.705093 141.213577,150.705093 
	C141.213577,180.225708 141.213577,209.653778 140.635391,239.532181 
	C113.466904,239.948303 86.876602,239.914093 60.286297,239.879883 
z"/>
<path fill="#FBFBFB" opacity="1.000000" stroke="none" 
	d="
M135.161194,420.999908 
	C135.161194,405.379242 135.161194,390.258606 135.161194,375.339233 
	C146.476501,375.339233 157.485626,374.615601 168.352448,375.548920 
	C178.599030,376.428955 184.461121,382.521149 185.961807,391.140503 
	C188.135544,403.625641 185.436111,409.872986 175.374390,415.643250 
	C188.808472,419.353424 190.706024,431.912933 188.495056,444.641174 
	C186.547394,455.853668 178.760605,462.297150 166.690353,462.813721 
	C156.402588,463.254028 146.081009,462.904724 135.161194,462.904724 
	C135.161194,449.008606 135.161194,435.254272 135.161194,420.999908 
M169.744583,430.346832 
	C167.199371,423.664429 163.510681,421.946991 155.294434,423.524902 
	C155.294434,432.085938 155.294434,440.615540 155.294434,449.121399 
	C167.530487,449.447388 170.505035,446.483795 170.151962,434.665741 
	C170.117249,433.503937 169.995270,432.344727 169.744583,430.346832 
M168.973526,395.171051 
	C166.331345,388.690033 163.532120,387.288391 155.223633,388.319366 
	C155.223633,395.508179 155.223633,402.700317 155.223633,409.878082 
	C166.954483,410.203552 169.471756,407.626617 168.973526,395.171051 
z"/>
<path fill="#FBFBFB" opacity="1.000000" stroke="none" 
	d="
M329.487244,374.700562 
	C335.472290,375.710602 341.292725,375.952515 346.418274,377.964600 
	C349.942627,379.348114 353.636688,382.641571 355.271851,386.036499 
	C359.431183,394.672058 358.918671,403.930481 354.994843,412.591675 
	C353.582672,415.708801 350.349243,418.000824 347.348663,421.333984 
	C351.016693,434.327850 354.968445,448.326843 359.021881,462.686005 
	C352.248199,462.686005 345.715759,462.686005 338.779694,462.686005 
	C335.913696,451.114716 332.844360,439.401733 330.188904,427.595642 
	C329.370453,423.956909 327.865082,422.726410 323.907043,423.917572 
	C323.907043,436.610931 323.907043,449.505920 323.907043,462.700012 
	C317.178955,462.700012 310.931183,462.700012 304.345673,462.700012 
	C304.345673,433.655884 304.345673,404.441559 304.345673,374.687256 
	C312.487976,374.687256 320.757172,374.687256 329.487244,374.700562 
M335.133972,388.955902 
	C331.463776,388.474182 327.793549,387.992462 324.084961,387.505707 
	C324.084961,396.256256 324.084961,404.107635 324.084961,412.062958 
	C329.305756,411.897156 334.652466,413.285645 337.877197,407.946716 
	C340.940704,402.874634 339.899658,393.965118 335.133972,388.955902 
z"/>
<path fill="#FAFAFA" opacity="1.000000" stroke="none" 
	d="
M473.635193,458.656067 
	C462.567230,466.412506 451.067535,466.048981 439.747833,460.856201 
	C432.414520,457.492126 429.491547,450.128326 429.232513,442.666718 
	C428.678223,426.701294 428.425903,410.667572 429.288330,394.728821 
	C429.995056,381.667908 437.427094,375.023438 450.445282,373.804230 
	C454.709229,373.404877 459.128021,373.564880 463.365417,374.203156 
	C472.279938,375.545807 478.185577,381.457123 479.763245,390.687469 
	C480.623077,395.717896 480.602386,400.898804 481.008270,406.411621 
	C474.311554,406.411621 468.228973,406.411621 461.147369,406.411621 
	C461.147369,402.504181 461.194916,398.421692 461.133667,394.340790 
	C461.075073,390.435181 459.819519,387.338196 455.231415,387.298615 
	C450.856262,387.260834 448.850464,389.965851 448.828522,393.979767 
	C448.737457,410.628082 448.730072,427.277740 448.859589,443.925629 
	C448.891205,447.988098 451.032593,450.418396 455.482361,450.279724 
	C459.990021,450.139191 460.958282,447.098602 461.081818,443.513245 
	C461.224670,439.365601 461.115051,435.209198 461.115051,430.650452 
	C467.747101,430.650452 473.940796,430.650452 480.657776,430.650452 
	C480.756561,440.557495 481.221222,450.360504 473.635193,458.656067 
z"/>
<path fill="#FCFCFC" opacity="1.000000" stroke="none" 
	d="
M376.912903,463.005707 
	C372.788177,463.005707 369.142242,463.005707 365.237946,463.005707 
	C370.845337,433.366791 376.373322,404.147522 381.919006,374.834656 
	C389.409027,374.834656 396.527832,374.834656 404.327576,374.834656 
	C409.763947,403.906281 415.223877,433.103790 420.751190,462.661743 
	C414.753204,462.661743 408.896088,462.661743 402.699402,462.661743 
	C401.705994,456.718353 400.700195,450.700775 399.673798,444.559937 
	C395.438263,444.559937 391.487671,444.559937 386.955902,444.559937 
	C385.906525,450.529449 384.849854,456.540436 383.713318,463.005707 
	C381.665680,463.005707 379.528687,463.005707 376.912903,463.005707 
M389.489960,425.926605 
	C389.243347,428.021881 388.996735,430.117188 388.736877,432.325134 
	C392.040375,432.325134 394.860107,432.325134 397.915344,432.325134 
	C396.448334,421.929047 395.044220,411.978760 393.640137,402.028442 
	C393.266663,402.065430 392.893188,402.102386 392.519714,402.139374 
	C391.567322,409.774811 390.614960,417.410278 389.489960,425.926605 
z"/>
<path fill="#FCFCFC" opacity="1.000000" stroke="none" 
	d="
M103.812157,444.407654 
	C92.463127,444.365845 92.475136,444.367615 90.888985,455.045624 
	C90.523979,457.502869 90.045609,459.943237 89.566628,462.694519 
	C83.502892,462.694519 77.422379,462.694519 71.047722,462.694519 
	C76.584892,433.416565 82.100716,404.251465 87.650406,374.907288 
	C95.052002,374.907288 102.167442,374.907288 110.092316,374.907288 
	C115.512901,403.914673 120.990685,433.228119 126.517227,462.802551 
	C120.391022,462.802551 114.612099,462.802551 108.458855,462.802551 
	C107.659119,457.911743 106.941803,453.028748 106.015266,448.185760 
	C105.763908,446.871887 104.880623,445.678894 103.812157,444.407654 
M94.560020,431.314392 
	C97.330078,431.957092 100.100136,432.599792 103.722496,433.440216 
	C102.202728,422.175934 100.850853,412.156006 99.498978,402.136108 
	C99.146820,402.143829 98.794655,402.151520 98.442497,402.159210 
	C97.187210,411.611603 95.931931,421.063965 94.560020,431.314392 
z"/>
<path fill="#FBFBFB" opacity="1.000000" stroke="none" 
	d="
M200.310974,384.518433 
	C207.407654,373.943756 224.277176,369.776245 234.682999,376.204163 
	C242.677200,381.142365 243.670319,389.583832 244.451462,398.534698 
	C238.887268,399.237274 233.543488,399.911987 227.761292,400.642090 
	C227.419128,397.769073 227.640045,394.948456 226.638901,392.663239 
	C225.803528,390.756409 223.169510,387.970245 221.985168,388.258331 
	C220.005203,388.739990 217.615280,391.107483 217.058624,393.136749 
	C215.843826,397.565216 217.554077,401.705872 220.894333,404.892914 
	C225.346390,409.140717 229.965240,413.213226 234.489334,417.386078 
	C242.194763,424.493195 246.877792,432.911316 246.079910,443.785706 
	C245.528137,451.306000 242.142914,457.118134 235.737488,461.008148 
	C220.507568,470.257416 201.691452,462.001312 198.348297,444.624481 
	C197.851730,442.043427 197.816208,439.373688 197.525177,436.299164 
	C203.132050,435.442078 208.461899,434.627350 213.814774,433.809082 
	C214.535370,437.607971 214.979218,441.052582 215.876694,444.374603 
	C216.810135,447.829712 219.254227,449.783691 222.960632,449.174530 
	C226.968704,448.515778 226.941925,445.204163 226.876923,442.183105 
	C226.757797,436.647125 223.885239,432.421509 219.969757,428.838257 
	C215.673965,424.906982 211.133881,421.234741 206.946762,417.194183 
	C197.398392,407.980011 195.192795,397.121185 200.310974,384.518433 
z"/>
<path fill="#FBFBFB" opacity="1.000000" stroke="none" 
	d="
M283.157013,428.000092 
	C283.157013,439.808258 283.157013,451.116394 283.157013,462.715637 
	C276.588226,462.715637 270.207672,462.715637 263.463684,462.715637 
	C263.463684,438.274536 263.463684,414.005005 263.463684,389.359680 
	C259.003784,389.359680 254.893280,389.359680 250.439606,389.359680 
	C250.439606,384.419434 250.439606,379.842499 250.439606,374.960266 
	C265.413055,374.960266 280.509460,374.960266 296.007355,374.960266 
	C296.007355,379.331909 296.007355,383.882080 296.007355,388.876953 
	C292.102722,388.876953 288.030365,388.876953 283.157013,388.876953 
	C283.157013,402.027191 283.157013,414.763611 283.157013,428.000092 
z"/>
<path fill="#FCFCFC" opacity="1.000000" stroke="none" 
	d="
M519.959839,374.668274 
	C524.102112,374.668304 527.751404,374.668304 531.948364,374.668304 
	C531.948364,377.240814 531.948364,379.501862 531.948364,381.762878 
	C531.948364,384.060089 531.948364,386.357269 531.948364,389.088196 
	C527.525757,389.088196 523.440308,389.088196 518.997864,389.088196 
	C518.997864,413.769836 518.997864,438.017578 518.997864,462.633972 
	C512.259094,462.633972 505.882141,462.633972 499.015442,462.633972 
	C499.015442,438.330750 499.015442,413.946625 499.015442,389.202515 
	C494.451904,389.202515 490.351807,389.202515 485.988861,389.202515 
	C485.988861,384.272491 485.988861,379.702667 485.988861,374.668243 
	C497.217194,374.668243 508.342010,374.668243 519.959839,374.668274 
z"/>
<path fill="#E7E7E7" opacity="1.000000" stroke="none" 
	d="
M266.394836,498.320496 
	C264.879547,498.405670 263.240784,498.682312 262.407349,497.989807 
	C259.687927,495.730194 257.262299,493.116974 253.579071,489.522919 
	C253.335037,494.888123 253.161163,498.710480 252.975800,502.785889 
	C251.777451,502.785889 250.570724,502.785889 249.207581,502.785889 
	C249.207581,496.658875 249.207581,490.729675 249.207581,484.820648 
	C252.629059,484.264679 252.629059,484.264679 253.964691,488.779205 
	C258.063843,487.546478 264.216797,492.055542 266.394836,498.320496 
z"/>
<path fill="#E1E1E1" opacity="1.000000" stroke="none" 
	d="
M530.706543,530.711365 
	C530.903748,533.834045 530.624329,536.007385 526.703003,534.669678 
	C526.703003,528.755493 526.703003,522.706299 526.703003,516.609680 
	C529.474365,515.502197 530.831543,516.131409 530.732483,519.275146 
	C530.617371,522.929077 530.706238,526.589478 530.706543,530.711365 
z"/>
<path fill="#E1E1E1" opacity="1.000000" stroke="none" 
	d="
M270.100464,484.144714 
	C271.251038,484.973419 272.571320,485.796692 272.603394,486.667450 
	C272.798706,491.966614 272.700867,497.276581 272.700867,502.765961 
	C271.120361,502.765961 269.905609,502.765961 268.393311,502.765961 
	C268.393311,497.171539 268.339844,491.857971 268.450500,486.547821 
	C268.467255,485.744171 269.247620,484.956390 270.100464,484.144714 
z"/>
<path fill="#E7E7E7" opacity="1.000000" stroke="none" 
	d="
M285.813538,501.504822 
	C284.577393,502.396576 283.361176,502.836212 281.792480,503.403290 
	C281.792480,496.713837 281.792480,490.764923 281.792480,484.687134 
	C284.362976,483.642853 285.926544,483.802002 285.860291,487.112579 
	C285.767334,491.757599 285.834625,496.405823 285.813538,501.504822 
z"/>
<path fill="#CDCDCD" opacity="1.000000" stroke="none" 
	d="
M472.703186,516.283875 
	C473.098419,522.538513 473.098419,528.618713 473.098419,534.797974 
	C471.964203,534.797974 470.732605,534.797974 469.175568,534.797974 
	C469.175568,529.225708 469.029480,523.930603 469.316254,518.658936 
	C469.365295,517.757507 471.263824,516.956726 472.703186,516.283875 
z"/>
<path fill="#CDCDCD" opacity="1.000000" stroke="none" 
	d="
M325.879578,535.080139 
	C324.677551,534.139526 323.329468,533.219604 323.273956,532.227417 
	C323.033600,527.929749 323.104309,523.609619 323.193634,519.300415 
	C323.255646,516.307861 323.351501,516.309875 328.136780,516.486816 
	C327.531738,522.703430 326.930023,528.885498 325.879578,535.080139 
z"/>
<path fill="#CDCDCD" opacity="1.000000" stroke="none" 
	d="
M266.578278,533.472046 
	C265.341217,534.404907 264.132751,534.886658 262.177338,535.666077 
	C262.177338,529.388489 262.031006,523.951660 262.303711,518.535889 
	C262.356720,517.482727 264.041046,516.511719 264.972900,515.502808 
	C265.517548,515.779114 266.062225,516.055359 266.606873,516.331604 
	C266.606873,521.894714 266.606873,527.457764 266.578278,533.472046 
z"/>
<path fill="#E7E7E7" opacity="1.000000" stroke="none" 
	d="
M346.837555,489.260864 
	C346.837372,493.209473 347.058228,496.714203 346.717590,500.163513 
	C346.597778,501.376587 345.101776,502.453735 344.234161,503.592957 
	C343.796387,503.324677 343.358612,503.056396 342.920837,502.788116 
	C342.920837,496.737701 342.920837,490.687256 342.920837,484.563538 
	C347.619385,482.926178 346.748627,486.304352 346.837555,489.260864 
z"/>
<path fill="#7D7AAB" opacity="1.000000" stroke="none" 
	d="
M60.235680,240.190674 
	C86.876602,239.914093 113.466904,239.948303 140.525406,239.989471 
	C141.038254,240.164276 141.082916,240.332123 141.060593,240.751740 
	C114.390869,241.035507 87.788155,241.067490 60.735405,241.111328 
	C60.251938,240.915939 60.218498,240.708694 60.235680,240.190674 
z"/>
<path fill="#E1E1E1" opacity="1.000000" stroke="none" 
	d="
M492.915375,520.004883 
	C488.624023,520.004883 484.817749,520.004883 481.011475,520.004883 
	C480.694031,519.565918 480.376556,519.126892 480.059113,518.687927 
	C481.139679,517.832275 482.179840,516.306152 483.307831,516.238159 
	C487.951965,515.958435 492.630768,515.975098 497.278046,516.228027 
	C498.398315,516.289062 499.446686,517.671631 500.528107,518.446411 
	C500.277740,518.965942 500.027374,519.485413 499.777039,520.004883 
	C497.651489,520.004883 495.525970,520.004883 492.915375,520.004883 
z"/>
<path fill="#C9C9C9" opacity="1.000000" stroke="none" 
	d="
M475.620544,486.549805 
	C475.628540,490.310333 475.774902,493.636963 475.537415,496.935944 
	C475.468140,497.898285 474.304352,498.781891 473.642273,499.701599 
	C472.814941,498.780640 471.336884,497.902161 471.273529,496.931335 
	C471.006073,492.835205 471.160278,488.711548 471.160278,482.760529 
	C473.416412,484.455444 474.514496,485.280396 475.620544,486.549805 
z"/>
<path fill="#DFDFDF" opacity="1.000000" stroke="none" 
	d="
M408.534607,522.163696 
	C408.531158,524.941223 408.702393,527.284973 408.425476,529.574585 
	C408.334076,530.330566 407.072144,531.493347 406.370575,531.475525 
	C405.644073,531.457092 404.367371,530.258240 404.334290,529.530151 
	C404.139893,525.252441 404.238739,520.961365 404.238739,516.732666 
	C408.498352,516.226807 408.498352,516.226807 408.534607,522.163696 
z"/>
<path fill="#E6E6E6" opacity="1.000000" stroke="none" 
	d="
M381.818359,484.131683 
	C384.372406,484.997314 388.792572,481.833893 388.274597,487.747009 
	C381.869781,487.747009 375.641754,487.747009 369.413757,487.747009 
	C369.136932,487.365051 368.860138,486.983093 368.583313,486.601105 
	C369.685089,485.778259 370.724335,484.371521 371.900696,484.245636 
	C375.018402,483.911926 378.195404,484.131958 381.818359,484.131683 
z"/>
<path fill="#7D7AAB" opacity="1.000000" stroke="none" 
	d="
M452.926147,150.282410 
	C478.779297,149.968597 504.953583,149.983002 531.601074,150.021332 
	C532.074219,150.045242 532.235474,150.496567 532.156433,150.722809 
	C506.780823,150.970428 481.484253,150.996353 456.187683,150.996109 
	C455.207550,150.996109 454.227386,150.744827 452.926147,150.282410 
z"/>
<path fill="#E4E4E4" opacity="1.000000" stroke="none" 
	d="
M310.114807,522.130981 
	C310.664337,519.493958 308.375610,515.422668 313.969818,516.329834 
	C313.969818,521.239868 313.969818,526.098938 313.969818,531.155701 
	C311.480560,532.103027 309.917603,531.820312 310.095490,528.545349 
	C310.203033,526.565796 310.114960,524.575562 310.114807,522.130981 
z"/>
<path fill="#E7E7E7" opacity="1.000000" stroke="none" 
	d="
M494.623230,484.806091 
	C494.855377,488.999390 495.088501,492.820129 494.803192,496.601746 
	C494.711792,497.813049 493.249115,498.920898 492.413788,500.076111 
	C491.961517,499.809113 491.509277,499.542145 491.057007,499.275146 
	C491.057007,494.382874 491.057007,489.490570 491.057007,484.418335 
	C492.205750,484.418335 493.314484,484.418335 494.623230,484.806091 
z"/>
<path fill="#E7E7E7" opacity="1.000000" stroke="none" 
	d="
M427.919922,528.479858 
	C426.965637,529.952148 426.011688,530.986572 425.057709,532.020996 
	C424.689606,531.705261 424.321472,531.389526 423.953339,531.073792 
	C423.953339,526.310669 423.953339,521.547546 423.953339,516.645508 
	C426.481537,515.632141 428.061493,515.799133 427.942200,519.107056 
	C427.834930,522.081787 427.919983,525.063416 427.919922,528.479858 
z"/>
<path fill="#F0F0F0" opacity="1.000000" stroke="none" 
	d="
M314.072632,494.001617 
	C314.072937,491.373016 313.777100,489.169891 314.184021,487.105255 
	C314.429993,485.857056 315.766022,484.823639 316.612274,483.693726 
	C317.039215,483.959076 317.466187,484.224426 317.893127,484.489777 
	C317.893127,490.519440 317.893127,496.549133 317.893127,502.576630 
	C314.072632,502.802460 314.072632,502.802460 314.072632,494.001617 
z"/>
<path fill="#F0F0F0" opacity="1.000000" stroke="none" 
	d="
M192.071014,485.465454 
	C192.138733,491.369507 192.138733,496.815674 192.138733,502.544800 
	C189.975937,503.154816 187.980301,504.051147 188.053024,500.325531 
	C188.140030,495.867615 188.074982,491.406738 188.073166,486.947144 
	C188.071823,483.639282 189.583801,483.405975 192.071014,485.465454 
z"/>
<path fill="#F8F8F8" opacity="1.000000" stroke="none" 
	d="
M301.014099,497.862671 
	C301.014618,493.916687 300.806976,490.434784 301.132324,487.003418 
	C301.241058,485.856720 302.711884,484.839111 303.560089,483.762512 
	C303.972595,484.029053 304.385101,484.295593 304.797607,484.562134 
	C304.797607,490.458649 304.797607,496.355164 304.797607,502.673676 
	C303.788910,502.765106 302.627075,502.870422 301.014038,503.016632 
	C301.014038,501.237549 301.014038,499.791992 301.014099,497.862671 
z"/>
<path fill="#F5F5F5" opacity="1.000000" stroke="none" 
	d="
M362.968231,526.965576 
	C362.968140,528.933411 362.834137,530.432312 362.995514,531.898804 
	C363.344910,535.074707 361.848328,535.515686 359.116608,534.661987 
	C359.116608,528.710022 359.116608,522.813599 359.116608,516.676392 
	C361.496704,515.698975 363.116760,515.697266 362.986328,519.061523 
	C362.890564,521.531494 362.967987,524.008240 362.968231,526.965576 
z"/>
<path fill="#F8F8F8" opacity="1.000000" stroke="none" 
	d="
M428.962219,502.973938 
	C427.666595,502.344543 426.158539,501.711609 426.127808,501.013641 
	C425.917542,496.238495 425.868652,491.441467 426.132660,486.671692 
	C426.191040,485.617249 427.709961,484.643616 429.433350,484.433929 
	C429.433350,490.602722 429.433350,496.771515 428.962219,502.973938 
z"/>
<path fill="#F5F5F5" opacity="1.000000" stroke="none" 
	d="
M507.968231,489.218536 
	C507.968079,493.157959 508.177368,496.642242 507.856201,500.076874 
	C507.741028,501.308441 506.346008,502.420319 505.535095,503.586792 
	C505.091858,503.344452 504.648651,503.102081 504.205414,502.859711 
	C504.205414,496.825775 504.205414,490.791870 504.205414,484.760590 
	C507.825134,484.340424 507.825134,484.340424 507.968231,489.218536 
z"/>
<path fill="#E1E1E1" opacity="1.000000" stroke="none" 
	d="
M445.962280,531.237000 
	C448.255005,531.237488 450.137085,530.948425 451.866028,531.338379 
	C453.053101,531.606079 454.027344,532.817139 455.096741,533.606567 
	C454.824280,534.013184 454.551819,534.419861 454.279388,534.826477 
	C448.713562,534.826477 443.147766,534.826477 435.713165,534.826477 
	C437.573212,533.083435 438.430969,531.629272 439.568970,531.360168 
	C441.446136,530.916077 443.504425,531.237915 445.962280,531.237000 
z"/>
<path fill="#ECECEC" opacity="1.000000" stroke="none" 
	d="
M376.685730,493.544312 
	C376.350830,490.330505 377.219269,488.922913 380.549835,490.124481 
	C380.549835,494.220093 380.549835,498.428131 380.549835,502.834534 
	C379.355743,502.834534 378.253265,502.834534 376.685608,502.834534 
	C376.685608,499.827515 376.685608,496.896301 376.685730,493.544312 
z"/>
<path fill="#F0F0F0" opacity="1.000000" stroke="none" 
	d="
M290.931549,524.910339 
	C290.931549,521.835693 290.931549,519.232239 290.931549,516.762390 
	C294.789948,515.135742 294.962708,517.170349 295.014679,519.839844 
	C295.236664,531.248596 295.284393,531.247681 290.931549,531.162720 
	C290.931549,529.246399 290.931549,527.313965 290.931549,524.910339 
z"/>
<path fill="#DFDFDF" opacity="1.000000" stroke="none" 
	d="
M391.381653,521.852051 
	C392.532654,520.786560 393.679810,520.123474 395.713440,518.947998 
	C395.713440,522.954712 395.906677,525.732544 395.619507,528.459900 
	C395.502625,529.570190 394.342468,530.570679 393.657013,531.621094 
	C392.896790,530.482361 391.714752,529.425476 391.474182,528.185913 
	C391.103302,526.274475 391.377319,524.237915 391.381653,521.852051 
z"/>
<path fill="#C9C9C9" opacity="1.000000" stroke="none" 
	d="
M458.290161,495.722321 
	C458.290314,493.004456 458.290314,490.715485 458.290314,488.117432 
	C459.733246,488.009949 460.963196,487.918335 463.120575,487.757629 
	C462.680817,491.948181 463.351074,496.362579 461.546967,499.208374 
	C460.193573,501.343231 458.077026,498.800140 458.290161,495.722321 
z"/>
<path fill="#E1E1E1" opacity="1.000000" stroke="none" 
	d="
M299.353729,497.109589 
	C298.220276,499.737671 296.936035,500.537659 294.740631,498.121765 
	C292.320160,495.458374 289.501892,493.156525 286.622375,490.479156 
	C287.845093,489.149445 288.658813,488.264526 289.731720,487.097748 
	C293.014252,490.455994 296.100128,493.613037 299.353729,497.109589 
z"/>
<path fill="#F5F5F5" opacity="1.000000" stroke="none" 
	d="
M412.404419,493.141663 
	C412.799316,492.461151 413.163818,491.921509 413.538544,491.914337 
	C416.963135,491.848816 420.389526,491.875854 424.709991,491.875854 
	C423.975800,493.381287 423.283844,495.243927 423.061646,495.189484 
	C419.541595,494.326874 415.341431,497.615662 412.404419,493.141663 
z"/>
<path fill="#F5F5F5" opacity="1.000000" stroke="none" 
	d="
M442.953461,524.457153 
	C446.212036,524.022644 449.309387,523.830627 452.402191,523.886719 
	C453.116547,523.899658 453.964935,524.647278 454.453644,525.285217 
	C454.672485,525.570801 454.134766,526.942810 453.976227,526.936401 
	C450.243683,526.785339 446.515656,526.517761 442.792633,526.202515 
	C442.752380,526.199036 442.789551,525.280945 442.953461,524.457153 
z"/>
<path fill="#E4E4E4" opacity="1.000000" stroke="none" 
	d="
M218.207581,487.858337 
	C223.590164,490.216278 219.632584,494.541656 220.676163,497.801971 
	C220.791687,498.162933 218.690979,499.233307 217.618103,499.974670 
	C217.150711,499.677917 216.683304,499.381165 216.215897,499.084442 
	C216.732239,495.347473 217.248566,491.610535 218.207581,487.858337 
z"/>
<path fill="#E4E4E4" opacity="1.000000" stroke="none" 
	d="
M406.906921,494.741547 
	C406.689941,491.143585 406.689941,487.880829 406.689941,484.669006 
	C410.139130,483.309326 411.677246,484.909912 410.684814,487.638977 
	C409.769531,490.155884 414.525024,495.724823 406.906921,494.741547 
z"/>
<path fill="#E6E6E6" opacity="1.000000" stroke="none" 
	d="
M444.712219,519.992676 
	C443.669098,519.010742 443.049591,518.031494 442.257629,516.779663 
	C453.217529,515.080994 455.959167,515.709595 455.933746,519.995361 
	C452.344604,519.995361 448.740234,519.995361 444.712219,519.992676 
z"/>
<path fill="#E6E6E6" opacity="1.000000" stroke="none" 
	d="
M417.018311,499.250854 
	C419.822510,500.013550 423.933441,497.175201 424.439667,502.760986 
	C419.731232,502.760986 415.372070,502.760986 411.007324,502.760986 
	C411.015991,499.257324 411.015991,499.257324 417.018311,499.250854 
z"/>
<path fill="#ECECEC" opacity="1.000000" stroke="none" 
	d="
M458.752716,535.020874 
	C457.591919,534.252930 456.320862,533.527100 456.239227,532.685791 
	C455.972504,529.936462 456.139191,527.145020 456.139191,524.088867 
	C457.575684,524.088867 458.778961,524.088867 460.779816,524.088867 
	C460.219482,527.930969 459.703308,531.470459 458.752716,535.020874 
z"/>
<path fill="#E1E1E1" opacity="1.000000" stroke="none" 
	d="
M333.209595,487.641632 
	C328.752441,487.882538 324.663971,487.882538 320.445496,487.882538 
	C320.272614,487.413483 319.872498,486.888916 320.000458,486.591858 
	C322.353363,481.129578 326.999603,485.276123 330.454468,484.210144 
	C332.737823,483.505615 334.348145,484.558411 333.209595,487.641632 
z"/>
<path fill="#DFDFDF" opacity="1.000000" stroke="none" 
	d="
M270.421783,516.120605 
	C273.678436,516.115723 276.508972,515.893616 279.273682,516.223450 
	C280.419067,516.359985 281.423492,517.677856 282.492035,518.458435 
	C282.240143,518.888916 281.988251,519.319336 281.736359,519.749756 
	C277.350769,519.749756 272.965179,519.749756 267.222961,519.749756 
	C268.459351,518.118286 269.214264,517.122131 270.421783,516.120605 
z"/>
<path fill="#E1E1E1" opacity="1.000000" stroke="none" 
	d="
M201.872131,488.004913 
	C199.100235,488.004913 196.789383,488.004913 194.478531,488.004913 
	C194.146896,487.648407 193.815247,487.291901 193.483612,486.935394 
	C194.400909,485.998260 195.475662,484.149841 196.209167,484.276581 
	C200.069366,484.943451 204.987915,482.004181 207.940994,486.048462 
	C207.828125,486.700623 207.715271,487.352753 207.602402,488.004913 
	C205.846008,488.004913 204.089600,488.004913 201.872131,488.004913 
z"/>
<path fill="#E1E1E1" opacity="1.000000" stroke="none" 
	d="
M362.094513,501.175079 
	C357.672882,502.302032 353.245758,502.967041 347.389038,503.846802 
	C348.558228,501.364105 349.078430,499.472839 349.495667,499.495270 
	C353.703094,499.721649 357.893677,500.261383 362.094513,501.175079 
z"/>
<path fill="#E1E1E1" opacity="1.000000" stroke="none" 
	d="
M524.375122,534.745850 
	C519.879395,534.958069 515.781189,534.958069 510.479340,534.958069 
	C511.412262,533.395020 511.962097,531.494080 512.688354,531.424072 
	C516.109619,531.094299 519.595276,531.092773 523.018005,531.407959 
	C523.693115,531.470093 524.192322,533.442261 524.375122,534.745850 
z"/>
<path fill="#E1E1E1" opacity="1.000000" stroke="none" 
	d="
M357.876678,488.004913 
	C354.604156,488.004913 351.797974,488.004913 349.029388,488.004913 
	C348.467804,483.605194 349.663971,483.293701 361.530823,484.464996 
	C361.882568,487.700348 361.882568,487.700348 357.876678,488.004913 
z"/>
<path fill="#DFDFDF" opacity="1.000000" stroke="none" 
	d="
M268.217834,532.290222 
	C272.084015,531.651367 275.823700,531.265991 279.552002,531.355164 
	C280.557068,531.379150 281.527649,532.844116 282.514038,533.647583 
	C282.300598,534.110779 282.087128,534.573975 281.873688,535.037170 
	C277.819000,535.037170 273.759888,535.128540 269.714539,534.934143 
	C269.137939,534.906494 268.627899,533.493713 268.217834,532.290222 
z"/>
<path fill="#E1E1E1" opacity="1.000000" stroke="none" 
	d="
M207.116089,499.657898 
	C208.137115,501.864105 207.945374,503.137604 205.400421,503.076538 
	C201.755310,502.989075 198.106522,503.054260 194.459305,503.054260 
	C194.176102,502.632904 193.892899,502.211548 193.609711,501.790192 
	C194.669540,500.939453 195.674698,499.454590 196.799545,499.357574 
	C200.098587,499.073090 203.445267,499.340637 207.116089,499.657898 
z"/>
<path fill="#E1E1E1" opacity="1.000000" stroke="none" 
	d="
M330.549500,499.237122 
	C332.071381,500.014343 333.147400,500.791199 334.223450,501.568054 
	C333.967102,501.987579 333.710754,502.407135 333.454407,502.826660 
	C329.174011,502.826660 324.893646,502.826660 318.706848,502.826660 
	C320.608948,501.081024 321.510437,499.553253 322.636597,499.364288 
	C325.064392,498.956940 327.607635,499.237610 330.549500,499.237122 
z"/>
<path fill="#F5F5F5" opacity="1.000000" stroke="none" 
	d="
M491.722778,522.096924 
	C492.032837,526.335693 492.032837,530.284607 492.032837,534.519348 
	C489.510529,535.503662 487.846039,535.418091 488.064819,531.847778 
	C488.215637,529.386353 488.255341,526.894775 488.051392,524.441101 
	C487.817474,521.626892 489.407593,521.549805 491.722778,522.096924 
z"/>
<path fill="#DFDFDF" opacity="1.000000" stroke="none" 
	d="
M301.215057,535.061523 
	C298.702820,534.923096 295.596039,535.955200 297.262634,531.144531 
	C300.932281,532.367615 305.769043,528.837402 308.719757,533.225342 
	C308.621399,533.837402 308.523041,534.449463 308.424683,535.061523 
	C306.167664,535.061523 303.910614,535.061523 301.215057,535.061523 
z"/>
<path fill="#DFDFDF" opacity="1.000000" stroke="none" 
	d="
M231.506409,503.061310 
	C228.295349,503.061523 225.516434,503.061523 222.737000,503.061523 
	C222.795486,499.047455 222.795486,499.047455 235.063644,499.360962 
	C233.606186,501.086609 232.772385,502.073853 231.506409,503.061310 
z"/>
<path fill="#DFDFDF" opacity="1.000000" stroke="none" 
	d="
M233.834473,487.637726 
	C229.934082,487.932037 226.325775,487.932037 222.717484,487.932037 
	C222.460449,487.429321 222.203430,486.926605 221.946396,486.423859 
	C223.112793,485.654205 224.734589,483.961609 225.367218,484.273773 
	C228.187973,485.665527 233.451736,480.301147 233.834473,487.637726 
z"/>
<path fill="#ECECEC" opacity="1.000000" stroke="none" 
	d="
M510.005676,516.204956 
	C510.688354,519.321228 511.135681,522.403992 511.009216,525.462952 
	C510.975311,526.283752 509.193298,527.032410 507.065430,528.730591 
	C507.065430,524.288025 506.852875,521.511536 507.179657,518.800171 
	C507.295441,517.839478 508.725159,517.037170 510.005676,516.204956 
z"/>
<path fill="#F0F0F0" opacity="1.000000" stroke="none" 
	d="
M240.028351,493.874268 
	C240.028351,495.817291 240.028351,497.304199 240.028351,499.454742 
	C238.691513,499.316864 236.563324,499.291351 236.541977,499.066132 
	C236.217834,495.646362 236.052048,492.195221 236.206116,488.767426 
	C236.225327,488.339844 238.279724,488.003784 240.028351,487.408356 
	C240.028351,489.863708 240.028351,491.640930 240.028351,493.874268 
z"/>
<path fill="#ECECEC" opacity="1.000000" stroke="none" 
	d="
M442.690002,499.154236 
	C440.247650,499.851135 438.817230,499.467316 439.033783,496.767761 
	C439.192261,494.792267 438.760101,492.727966 439.170929,490.828613 
	C439.448578,489.545105 440.734131,488.479584 441.568878,487.316559 
	C442.040619,487.565979 442.512390,487.815399 442.984131,488.064819 
	C442.984131,491.655090 442.984131,495.245392 442.690002,499.154236 
z"/>
<path fill="#E4E4E4" opacity="1.000000" stroke="none" 
	d="
M450.953125,499.246826 
	C453.466064,499.833832 457.253845,497.477295 456.797607,502.724121 
	C453.080353,502.724121 449.368652,502.724121 445.216187,502.724121 
	C444.199646,497.605042 448.395142,499.811646 450.953125,499.246826 
z"/>
<path fill="#E1E1E1" opacity="1.000000" stroke="none" 
	d="
M419.656494,531.242676 
	C420.890961,532.228149 421.673615,533.209290 422.975281,534.841125 
	C417.854706,534.841125 414.105591,534.841125 409.571136,534.841125 
	C411.487579,528.742981 416.270447,532.405151 419.656494,531.242676 
z"/>
<path fill="#E4E4E4" opacity="1.000000" stroke="none" 
	d="
M383.953125,531.246887 
	C386.497894,531.779480 390.202789,529.564514 389.829102,534.724121 
	C386.081482,534.724121 382.370941,534.724121 378.216187,534.724121 
	C377.199768,529.605042 381.395111,531.811584 383.953125,531.246887 
z"/>
<path fill="#E1E1E1" opacity="1.000000" stroke="none" 
	d="
M383.036255,516.119995 
	C385.701935,516.952637 389.933746,513.862549 389.898773,519.674438 
	C386.020844,519.674438 382.301514,519.674438 378.557983,519.674438 
	C378.119202,516.237244 378.119202,516.237244 383.036255,516.119995 
z"/>
<path fill="#DFDFDF" opacity="1.000000" stroke="none" 
	d="
M510.796997,487.951996 
	C510.155518,486.745911 509.927948,485.589417 509.496429,483.396362 
	C513.674683,485.504028 518.594421,481.639099 521.769226,488.001587 
	C517.400635,488.001587 514.305786,488.001587 510.796997,487.951996 
z"/>
<path fill="#ECECEC" opacity="1.000000" stroke="none" 
	d="
M376.159546,524.942749 
	C376.159546,527.225403 376.159546,529.036926 376.159546,531.534607 
	C374.745544,531.334290 372.626526,531.263672 372.601288,530.995789 
	C372.280304,527.587585 372.145569,524.145508 372.313049,520.729187 
	C372.333130,520.319641 374.409973,520.011047 375.937256,519.527954 
	C376.029541,521.580261 376.094543,523.025879 376.159546,524.942749 
z"/>
<path fill="#F0F0F0" opacity="1.000000" stroke="none" 
	d="
M437.002869,526.274841 
	C436.940918,522.876709 436.940918,519.904724 436.940918,516.968506 
	C441.519318,515.927612 441.675415,516.362427 440.603394,527.423218 
	C439.391632,527.175903 438.228241,526.938416 437.002869,526.274841 
z"/>
<path fill="#E1E1E1" opacity="1.000000" stroke="none" 
	d="
M486.744110,503.055298 
	C483.333160,503.057068 480.382965,503.057068 475.695282,503.057068 
	C477.492859,501.083282 478.235107,499.509064 479.181030,499.375336 
	C481.773834,499.008728 484.460327,499.135590 487.091339,499.324127 
	C487.769684,499.372742 488.984192,500.504791 488.894958,500.901215 
	C488.714142,501.704742 487.810516,502.345612 486.744110,503.055298 
z"/>
<path fill="#E1E1E1" opacity="1.000000" stroke="none" 
	d="
M446.372803,484.156067 
	C449.317230,484.125336 451.835388,483.877899 454.265411,484.233185 
	C455.380829,484.396271 456.323242,485.742645 457.344116,486.552429 
	C457.073120,486.959717 456.802124,487.366974 456.531158,487.774231 
	C452.931519,487.774231 449.331879,487.774231 444.899231,487.774231 
	C445.251923,486.522644 445.581207,485.354156 446.372803,484.156067 
z"/>
<path fill="#FAFAFA" opacity="1.000000" stroke="none" 
	d="
M513.069397,524.784119 
	C516.835632,524.111145 520.535828,523.882935 525.621948,523.569275 
	C524.427795,525.430481 523.619934,527.239868 523.266541,527.155029 
	C519.873230,526.340942 515.662598,529.641052 513.069397,524.784119 
z"/>
<path fill="#E4E4E4" opacity="1.000000" stroke="none" 
	d="
M347.835266,528.276123 
	C349.363190,529.590881 350.637878,530.636414 351.824524,531.609680 
	C348.761810,535.955383 348.544037,535.851257 341.405884,527.282104 
	C342.157196,526.480713 342.920837,525.666138 343.908112,524.613037 
	C345.234009,525.837830 346.408020,526.922363 347.835266,528.276123 
z"/>
<path fill="#F8F8F8" opacity="1.000000" stroke="none" 
	d="
M514.250122,495.341064 
	C512.373047,494.817047 510.905334,494.293060 509.437683,493.769104 
	C509.594452,493.218109 509.751251,492.667145 509.908020,492.116180 
	C513.314270,492.116180 516.720459,492.116180 520.129150,492.113312 
	C520.373352,495.333008 520.373352,495.333008 514.250122,495.341064 
z"/>
<path fill="#E1E1E1" opacity="1.000000" stroke="none" 
	d="
M332.270142,520.004578 
	C330.905487,519.246399 329.996826,518.488464 329.088196,517.730530 
	C329.922699,517.195129 330.714081,516.304688 331.600525,516.196960 
	C333.540985,515.961243 335.584930,515.845581 337.478424,516.223267 
	C338.661652,516.459290 339.647797,517.683472 340.722351,518.464233 
	C340.476776,518.977783 340.231201,519.491272 339.985626,520.004822 
	C337.565796,520.004822 335.145996,520.004822 332.270142,520.004578 
z"/>
<path fill="#FAFAFA" opacity="1.000000" stroke="none" 
	d="
M329.681091,524.151489 
	C333.194519,523.937195 336.317291,523.937195 340.975983,523.937195 
	C339.645050,525.536621 338.488220,527.313782 338.220734,527.188721 
	C335.354034,525.848450 330.447113,530.743225 329.681091,524.151489 
z"/>
<path fill="#DFDFDF" opacity="1.000000" stroke="none" 
	d="
M524.420471,493.055664 
	C523.740479,490.491028 522.936829,487.945038 522.542908,485.337219 
	C522.495667,485.024170 524.671753,484.375275 525.817322,483.882050 
	C526.304321,484.223358 526.791321,484.564667 527.278320,484.905975 
	C526.413574,487.350281 525.548889,489.794617 524.594055,492.680420 
	C524.503967,493.121948 524.420471,493.055664 524.420471,493.055664 
z"/>
<path fill="#FBFBFB" opacity="1.000000" stroke="none" 
	d="
M524.095825,493.193542 
	C524.420471,493.055664 524.503967,493.121948 524.547485,493.091187 
	C527.106934,495.379333 529.622864,497.698242 532.752075,500.582397 
	C531.574951,501.592072 530.658325,502.378265 529.318787,503.527252 
	C527.190552,501.204712 525.111511,499.284821 523.528625,497.018433 
	C522.978210,496.230316 523.654907,494.585144 524.095825,493.193542 
z"/>
<path fill="#ECECEC" opacity="1.000000" stroke="none" 
	d="
M341.958679,518.272095 
	C343.011719,517.148071 344.059662,516.464661 345.433472,515.568787 
	C346.537994,523.841919 346.537994,523.841919 341.953583,523.476257 
	C341.953583,521.910400 341.953583,520.311584 341.958679,518.272095 
z"/>
<path fill="#020202" opacity="1.000000" stroke="none" 
	d="
M169.829193,430.765564 
	C169.995270,432.344727 170.117249,433.503937 170.151962,434.665741 
	C170.505035,446.483795 167.530487,449.447388 155.294434,449.121399 
	C155.294434,440.615540 155.294434,432.085938 155.294434,423.524902 
	C163.510681,421.946991 167.199371,423.664429 169.829193,430.765564 
z"/>
<path fill="#020202" opacity="1.000000" stroke="none" 
	d="
M169.021393,395.591614 
	C169.471756,407.626617 166.954483,410.203552 155.223633,409.878082 
	C155.223633,402.700317 155.223633,395.508179 155.223633,388.319366 
	C163.532120,387.288391 166.331345,388.690033 169.021393,395.591614 
z"/>
<path fill="#030303" opacity="1.000000" stroke="none" 
	d="
M335.497009,389.144196 
	C339.899658,393.965118 340.940704,402.874634 337.877197,407.946716 
	C334.652466,413.285645 329.305756,411.897156 324.084961,412.062958 
	C324.084961,404.107635 324.084961,396.256256 324.084961,387.505707 
	C327.793549,387.992462 331.463776,388.474182 335.497009,389.144196 
z"/>
<path fill="#111111" opacity="1.000000" stroke="none" 
	d="
M389.576263,425.486145 
	C390.614960,417.410278 391.567322,409.774811 392.519714,402.139374 
	C392.893188,402.102386 393.266663,402.065430 393.640137,402.028442 
	C395.044220,411.978760 396.448334,421.929047 397.915344,432.325134 
	C394.860107,432.325134 392.040375,432.325134 388.736877,432.325134 
	C388.996735,430.117188 389.243347,428.021881 389.576263,425.486145 
z"/>
<path fill="#111111" opacity="1.000000" stroke="none" 
	d="
M94.618332,430.915344 
	C95.931931,421.063965 97.187210,411.611603 98.442497,402.159210 
	C98.794655,402.151520 99.146820,402.143829 99.498978,402.136108 
	C100.850853,412.156006 102.202728,422.175934 103.722496,433.440216 
	C100.100136,432.599792 97.330078,431.957092 94.618332,430.915344 
z"/>
</svg>